/* XPM */
static char *result[] = {
/* columns rows colors chars-per-pixel */
"48 48 5 1 ",
"  c #040204",
". c #FC86CC",
"X c #FCBAE4",
"o c #FCFEFC",
"O c None",
/* pixels */
"OOOOOOOOOOOOOOOOOOO..........OOOOOOOOOOOOOOOOOOO",
"OOOOOOOOOOOOOOOOOOO..........OOOOOOOOOOOOOOOOOOO",
"OOOOOOOOOOOOOOO....XXXXXXXXXX....OOOOOOOOOOOOOOO",
"OOOOOOOOOOOOOOO....XXXXXXXXXX....OOOOOOOOOOOOOOO",
"OOOOOOOOOOOO...XXXXXXXXXXXXXXXXXX...OOOOOOOOOOOO",
"OOOOOOOOOOOO...XXXXXXXXXXXXXXXXXX...OOOOOOOOOOOO",
"OOOOOOOOOO..XXXXXXXXXXXXXXXXXXXXXXXX..OOOOOOOOOO",
"OOOOOOOOOO..XXXXXXXXXXXXXXXXXXXXXXXX..OOOOOOOOOO",
"OOOOOOOOOO..XXXXXXXXXXXXXXXXXXXXXXXX..OOOOOOOOOO",
"OOOOOOOOOO..XXXXXXXXXXXXXXXXXXXXXXXX..OOOOOOOOOO",
"OOOOOOOO..XXXXXXXXXXXXXXXXXXXXXXXXXXXX..OOOOOOOO",
"OOOOOOOO..XXXXXXXXXXXXXXXXXXXXXXXXXXXX..OOOOOOOO",
"OOOOOOOO..XXXXXXXXXXXXXXXXXXXXXXXXXXXX..OOOOOOOO",
"OOOOOO..XXXXXXXXXXXXXXXXXXXXXXXXXXXXXXXX..OOOOOO",
"OOOOOO..XXXXXXXXXXXXXXXXXXXXXXXXXXXXXXXX..OOOOOO",
"OOOOOO..XXXXXXXXXXXXXXXXXXXXXXXXXXXXXXXX..OOOOOO",
"OOOOOO..XXXXXXXXXXXXXXXXXXXXXXXXXXXXXXXX..OOOOOO",
"OOOOOO..XXXX oo  XXXXXXXXXXXX  oo  XXXXX..OOOOOO",
"OOOOOO..XXXX oo  XXXXXXXXXXXX  oo  XXXXX..OOOOOO",
"OOOOOO..XXXX     XXXXXXXXXXXX      XXXXX..OOOOOO",
"OOOOOO..XXXX     XXXXXXXXXXXX      XXXXX..OOOOOO",
"OOOOOO..XXXX     XX........XX      XXXXX..OOOOOO",
"OOOOOO..XXXX     XX........XX      XXXXX..OOOOOO",
"OOOOOOOO..XXXXXXX....XXXX....XXXXXXXXX..OOOOOOOO",
"OOOOOOOO..XXXXXXX....XXXX....XXXXXXXXX..OOOOOOOO",
"OOOOOOOO..XXXXXXX....XXXX....XXXXXXXXX..OOOOOOOO",
"OOOOOOOO..XXXXXXX....XXXX....XXXXXXXXX..OOOOOOOO",
"OOOOOOOOOO..XXXXX....XXXX....XXXXXXX..OOOOOOOOOO",
"OOOOOOOOOO..XXXXX....XXXX....XXXXXXX..OOOOOOOOOO",
"OOOOOO......XXXXXXX........XXXXXXXXX......OOOOOO",
"OOOOOO......XXXXXXX........XXXXXXXXX......OOOOOO",
"OOOO..XXXXXX.XXXXXXXXXXXXXXXXXXXXXX.XXXXXX..OOOO",
"OOOO..XXXXXX.XXXXXXXXXXXXXXXXXXXXXX.XXXXXX..OOOO",
"OOOO..XXXX..XXXXXXXXXXXXXXXXXXXXXXXX..XXXX..OOOO",
"OOOO..XXXX..XXXXXXXXXXXXXXXXXXXXXXXX..XXXX..OOOO",
"OOOOOO....XXXXX..XXXXXXXXXXXXXX..XXXXX....OOOOOO",
"OOOOOO..XXXX.....XXXXXX..XXXXXX.....XXXX..OOOOOO",
"OOOOOO..XXXX.....XXXXXX..XXXXXX.....XXXX..OOOOOO",
"OOOOOOOO....OOO..XXXX..OO..XXXX..OOO....OOOOOOOO",
"OOOOOOOO....OOO..XXXX..OO..XXXX..OOO....OOOOOOOO",
"OOOOOOOOOOOOOOO..XXXX..OO..XXXX..OOOOOOOOOOOOOOO",
"OOOOOOOOOOOOOOO..XXXX..OO..XXXX..OOOOOOOOOOOOOOO",
"OOOOOOOOOOOOOOOOO....OOOOOO....OOOOOOOOOOOOOOOOO",
"OOOOOOOOOOOOOOOOO....OOOOOO....OOOOOOOOOOOOOOOOO",
"OOOOOOOOOOOOOOOOOOOOOOOOOOOOOOOOOOOOOOOOOOOOOOOO",
"OOOOOOOOOOOOOOOOOOOOOOOOOOOOOOOOOOOOOOOOOOOOOOOO",
"OOOOOOOOOOOOOOOOOOOOOOOOOOOOOOOOOOOOOOOOOOOOOOOO",
"OOOOOOOOOOOOOOOOOOOOOOOOOOOOOOOOOOOOOOOOOOOOOOOO"
};
