/* XPM */
static char *result[] = {
/* columns rows colors chars-per-pixel */
"48 48 5 1 ",
"  c #040204",
". c #FC86CC",
"X c #FCBAE4",
"o c #FCFEFC",
"O c None",
/* pixels */
"OOOOOOOOOOOOOOOOOOOOOOOOOOOOOOOOOOOOOOOOOOOOOOOO",
"OOOOOOOOOOOOOOOOOOOOOOOOOOOOOOOOOOOOOOOOOOOOOOOO",
"OOOOOOOOOOOOOOOOOOO..........OOOOOOOOOOOOOOOOOOO",
"OOOOOOOOOOOOOOOOOOO..........OOOOOOOOOOOOOOOOOOO",
"OOOOOOOOOOOOOOO....XXXXXXXXXX....OOOOOOOOOOOOOOO",
"OOOOOOOOOOOOOOO....XXXXXXXXXX....OOOOOOOOOOOOOOO",
"OOOOOOOOOOOO...XXXXXXXXXXXXXXXXXX...OOOOOOOOOOOO",
"OOOOOOOOOOOO...XXXXXXXXXXXXXXXXXX...OOOOOOOOOOOO",
"OOOOOOOOOO..XXXXXXXXXXXXXXXXXXXXXXXX..OOOOOOOOOO",
"OOOOOOOOOO..XXXXXXXXXXXXXXXXXXXXXXXX..OOOOOOOOOO",
"OOOOOOOOOO..XXXXXXXXXXXXXXXXXXXXXXXX..OOOOOOOOOO",
"OOOOOOOOOO..XXXXXXXXXXXXXXXXXXXXXXXX..OOOOOOOOOO",
"OOOOOOOO..XXXXXXXXXXXXXXXXXXXXXXXXXXXX..OOOOOOOO",
"OOOOOOOO..XXXXXXXXXXXXXXXXXXXXXXXXXXXX..OOOOOOOO",
"OOOOOOOO..XXXXXXXXXXXXXXXXXXXXXXXXXXXX..OOOOOOOO",
"OOOOOO..XXXXXXXXXXXXXXXXXXXXXXXXXXXXXXXX..OOOOOO",
"OOOOOO..XXXXXXXXXXXXXXXXXXXXXXXXXXXXXXXX..OOOOOO",
"OOOOOO..XXXXXXXXXXXXXXXXXXXXXXXXXXXXXXXX..OOOOOO",
"OOOOOO..XXXXXXXXXXXXXXXXXXXXXXXXXXXXXXXX..OOOOOO",
"OOOOOO..XXXX oo  XXXXXXXXXXXX  oo  XXXXX..OOOOOO",
"OOOOOO..XXXX oo  XXXXXXXXXXXX  oo  XXXXX..OOOOOO",
"OOOOOO..XXXX     XXXXXXXXXXXX      XXXXX..OOOOOO",
"OOOOOO..XXXX     XXXXXXXXXXXX      XXXXX..OOOOOO",
"OOOOOO..XXXX     XX........XX      XXXXX..OOOOOO",
"OOOOOO..XXXX     XX........XX      XXXXX..OOOOOO",
"OOOOOOOO..XXXXXXX....XXXX....XXXXXXXXX..OOOOOOOO",
"OOOOOOOO..XXXXXXX....XXXX....XXXXXXXXX..OOOOOOOO",
"OOOOOOOO..XXXXXXX....XXXX....XXXXXXXXX..OOOOOOOO",
"OOOOOOOO..XXXXXXX....XXXX....XXXXXXXXX..OOOOOOOO",
"OOOOOO......XXXXX....XXXX....XXXXXXX......OOOOOO",
"OOOOOO......XXXXX....XXXX....XXXXXXX......OOOOOO",
"OOOO..XXXX..XXXXXXX........XXXXXXXXX..XXXX..OOOO",
"OOOO..XXXX..XXXXXXX........XXXXXXXXX..XXXX..OOOO",
"OOOO..XXXXXX.XXXXXXXXXXXXXXXXXXXXXX.XXXXXX..OOOO",
"OOOO..XXXXXX.XXXXXXXXXXXXXXXXXXXXXX.XXXXXX..OOOO",
"OOOOOO......XXXXXXXXXXXXXXXXXXXXXXXX......OOOOOO",
"OOOOOO..XXXXXXX..XXXXXXXXXXXXXX..XXXXXXX..OOOOOO",
"OOOOOO..XXXXXXX..XXXXXXXXXXXXXX..XXXXXXX..OOOOOO",
"OOOOOO.........XXXXXXXX..XXXXXXXX.........OOOOOO",
"OOOOOO.........XXXXXXXX..XXXXXXXX.........OOOOOO",
"OOOOOOOOOOOO.XXXXXX....OO....XXXXXX.OOOOOOOOOOOO",
"OOOOOOOOOOOO.XXXXXX....OO....XXXXXX.OOOOOOOOOOOO",
"OOOOOOOOOOOOO......OOOOOOOOOO......OOOOOOOOOOOOO",
"OOOOOOOOOOOOO......OOOOOOOOOO......OOOOOOOOOOOOO",
"OOOOOOOOOOOOOOOOOOOOOOOOOOOOOOOOOOOOOOOOOOOOOOOO",
"OOOOOOOOOOOOOOOOOOOOOOOOOOOOOOOOOOOOOOOOOOOOOOOO",
"OOOOOOOOOOOOOOOOOOOOOOOOOOOOOOOOOOOOOOOOOOOOOOOO",
"OOOOOOOOOOOOOOOOOOOOOOOOOOOOOOOOOOOOOOOOOOOOOOOO"
};
