/* XPM */
static char *result[] = {
/* columns rows colors chars-per-pixel */
"48 48 5 1 ",
"  c #040204",
". c #FC86CC",
"X c #FCBAE4",
"o c #FCFEFC",
"O c None",
/* pixels */
"OOOOOOOOOOOOOOOOOOOOOOOOOOOOOOOOOOOOOOOOOOOOOOOO",
"OOOOOOOOOOOOOOOOOOOOOOOOOOOOOOOOOOOOOOOOOOOOOOOO",
"OOOOOOOOOOOOOOOOOOOOOOOOOOOOOOOOOOOOOOOOOOOOOOOO",
"OOOOOOOOOOOOOOOOOOOOOOOOOOOOOOOOOOOOOOOOOOOOOOOO",
"OOOOOOOOOOOOOOOOOOO..........OOOOOOOOOOOOOOOOOOO",
"OOOOOOOOOOOOOOOOOOO..........OOOOOOOOOOOOOOOOOOO",
"OOOOOOOOOOOOOOO....XXXXXXXXXX....OOOOOOOOOOOOOOO",
"OOOOOOOOOOOOOOO....XXXXXXXXXX....OOOOOOOOOOOOOOO",
"OOOOOOOOOOOO...XXXXXXXXXXXXXXXXXX...OOOOOOOOOOOO",
"OOOOOOOOOOOO...XXXXXXXXXXXXXXXXXX...OOOOOOOOOOOO",
"OOOOOOOOOO..XXXXXXXXXXXXXXXXXXXXXXXX..OOOOOOOOOO",
"OOOOOOOOOO..XXXXXXXXXXXXXXXXXXXXXXXX..OOOOOOOOOO",
"OOOOOOOOOO..XXXXXXXXXXXXXXXXXXXXXXXX..OOOOOOOOOO",
"OOOOOOOO..XXXXXXXXXXXXXXXXXXXXXXXXXXXX..OOOOOOOO",
"OOOOOOOO..XXXXXXXXXXXXXXXXXXXXXXXXXXXX..OOOOOOOO",
"OOOOOOOO..XXXXXXXXXXXXXXXXXXXXXXXXXXXX..OOOOOOOO",
"OOOOOOOO..XXXXXXXXXXXXXXXXXXXXXXXXXXXX..OOOOOOOO",
"OOOOOO..XXXXXXXXXXXXXXXXXXXXXXXXXXXXXXXX..OOOOOO",
"OOOOOO..XXXXXXXXXXXXXXXXXXXXXXXXXXXXXXXX..OOOOOO",
"OOOOOO..XXXXXXXXXXXXXXXXXXXXXXXXXXXXXXXX..OOOOOO",
"OOOOOO..XXXXXXXXXXXXXXXXXXXXXXXXXXXXXXXX..OOOOOO",
"OOOOOO..XXXX oo  XXXXXXXXXXXX  oo  XXXXX..OOOOOO",
"OOOOOO..XXXX oo  XXXXXXXXXXXX  oo  XXXXX..OOOOOO",
"OOOOOO..XXXX     XXXXXXXXXXXX      XXXXX..OOOOOO",
"OOOOOO..XXXX     XXXXXXXXXXXX      XXXXX..OOOOOO",
"OOOOOO..XXXX     XX........XX      XXXXX..OOOOOO",
"OOOOOO..XXXX     XX........XX      XXXXX..OOOOOO",
"OOOOOOOO..XXXXXXX....XXXX....XXXXXXXXX..OOOOOOOO",
"OOOOOOOO..XXXXXXX....XXXX....XXXXXXXXX..OOOOOOOO",
"OOOOOOOO..XXXXXXX....XXXX....XXXXXXXXX..OOOOOOOO",
"OOOOOOOO..XXXXXXX....XXXX....XXXXXXXXX..OOOOOOOO",
"OOOOOOOO....XXXXX....XXXX....XXXXXXX....OOOOOOOO",
"OOOOOOOO....XXXXX....XXXX....XXXXXXX....OOOOOOOO",
"OOOOOO..XX..XXXXXXX........XXXXXXXXX..XX..OOOOOO",
"OOOOOO..XX..XXXXXXX........XXXXXXXXX..XX..OOOOOO",
"OOOO..XXXXXX.XXXXXXXXXXXXXXXXXXXXXX.XXXXXX..OOOO",
"OOOO..XXXX..XXXXXXXXXXXXXXXXXXXXXXXX..XXXX..OOOO",
"OOOO..XXXX..XXXXXXXXXXXXXXXXXXXXXXXX..XXXX..OOOO",
"OOOOOO....XXXXX..XXXXXXXXXXXXXX..XXXXX....OOOOOO",
"OOOOOO....XXXXX..XXXXXXXXXXXXXX..XXXXX....OOOOOO",
"OOOOOOOO..XXX..XXXXXXXX..XXXXXXXX..XXX..OOOOOOOO",
"OOOOOOOO..XXX..XXXXXXXX..XXXXXXXX..XXX..OOOOOOOO",
"OOOOOOOOOO.....XXXXXX..OO..XXXXXX.....OOOOOOOOOO",
"OOOOOOOOOO.....XXXXXX..OO..XXXXXX.....OOOOOOOOOO",
"OOOOOOOOOOOOO..XXXX..OOOOOO..XXXX..OOOOOOOOOOOOO",
"OOOOOOOOOOOOO..XXXX..OOOOOO..XXXX..OOOOOOOOOOOOO",
"OOOOOOOOOOOOOOO....OOOOOOOOOO....OOOOOOOOOOOOOOO",
"OOOOOOOOOOOOOOO....OOOOOOOOOO....OOOOOOOOOOOOOOO"
};
