/* XPM */
static char *result[] = {
/* columns rows colors chars-per-pixel */
"48 48 158 2 ",
"   c #144D06",
".  c #164F08",
"X  c #165305",
"o  c #165C00",
"O  c #1D5D01",
"+  c #16530A",
"@  c #1C520C",
"#  c #255F00",
"$  c #176004",
"%  c #1F6006",
"&  c #226200",
"*  c #2C6D05",
"=  c #377F1C",
"-  c #335822",
";  c #32592D",
":  c #3B8804",
">  c #33840B",
",  c #38810E",
"<  c #388A0D",
"1  c #2F8214",
"2  c #348313",
"3  c #378B11",
"4  c #468600",
"5  c #418C02",
"6  c #428A0A",
"7  c #488B08",
"8  c #479003",
"9  c #539F07",
"0  c #459B12",
"q  c #479D1E",
"w  c #4B9E1D",
"e  c #569D13",
"r  c #549F1D",
"t  c #54A30C",
"y  c #54A114",
"u  c #59A213",
"i  c #5CA810",
"p  c #50A01B",
"a  c #469425",
"s  c #479B22",
"d  c #4A9E24",
"f  c #4A942A",
"g  c #459E2A",
"h  c #4B9C2A",
"j  c #509C27",
"k  c #47A024",
"l  c #4BA024",
"z  c #4BA029",
"x  c #4DA132",
"c  c #7CBF21",
"v  c #7AC90E",
"b  c #7BC415",
"n  c #7DCA16",
"m  c #7CC41C",
"M  c #7ECA1B",
"N  c #7CC121",
"B  c #7CC72C",
"V  c #76CA2E",
"C  c #7DC92C",
"Z  c #6EC43B",
"A  c #76C534",
"S  c #70C836",
"D  c #7DC933",
"F  c #73C63E",
"G  c #72C93D",
"H  c #5E9C42",
"J  c #619F41",
"K  c #6FC844",
"L  c #6EC248",
"P  c #6EC94A",
"I  c #72C442",
"U  c #74CA43",
"Y  c #86CD03",
"T  c #89CC03",
"R  c #87CD0A",
"E  c #8ACC09",
"W  c #84CC14",
"Q  c #81C41E",
"!  c #81CA1D",
"~  c #93D31D",
"^  c #9CD21D",
"/  c #A7D307",
"(  c #AAD405",
")  c #A5D40C",
"_  c #A9D40B",
"`  c #ACD90D",
"'  c #AAD112",
"]  c #A9D21C",
"[  c #B4E71C",
"{  c #B6EC1A",
"}  c #82CE23",
"|  c #80C22C",
" . c #81CA29",
".. c #9AD324",
"X. c #9EDA20",
"o. c #81C733",
"O. c #96C533",
"+. c #9AC031",
"@. c #96C63C",
"#. c #A4D422",
"$. c #ABD322",
"%. c #ABD12E",
"&. c #AECD35",
"*. c #B1CF3D",
"=. c #B2E621",
"-. c #B5EA25",
";. c #BAEA26",
":. c #B4E62C",
">. c #BAE72C",
",. c #B5E92A",
"<. c #BCEB2A",
"1. c #A6EA31",
"2. c #AAEA34",
"3. c #A3E53D",
"4. c #A8E639",
"5. c #B6E733",
"6. c #B3EB30",
"7. c #B5E73A",
"8. c #D7F535",
"9. c #D9F737",
"0. c #D6F53B",
"q. c #D8F43C",
"w. c #8CC24A",
"e. c #B0CC41",
"r. c #B3D441",
"t. c #BDDC59",
"y. c #A5E340",
"u. c #BCE251",
"i. c #BFE955",
"p. c #BEE35B",
"a. c #BDE95D",
"s. c #BDE562",
"d. c #BDE66E",
"f. c #BEE573",
"g. c #BDE970",
"h. c #BFE27A",
"j. c #CEEA40",
"k. c #CFF44A",
"l. c #D7F442",
"z. c #D9F343",
"x. c #D8F249",
"c. c #C5E856",
"v. c #C1E55C",
"b. c #CFF152",
"n. c #C7DD7A",
"m. c #C3E761",
"M. c #C9E964",
"N. c #C3E56C",
"B. c #C4E968",
"V. c #D9EF61",
"C. c #D9ED6C",
"Z. c #DAF164",
"A. c #DAF06A",
"S. c #C1E374",
"D. c #C9E672",
"F. c #C0E178",
"G. c #C7E388",
"H. c None",
/* pixels */
"H.H.H.H.H.H.H.H.H.H.H.H.H.H.H.H.H.H.H.H.H.H.H.H.H.H.H.H.H.H.H.H.H.H.H.H.H.H.H.H.H.H.H.H.H.H.H.H.",
"H.H.H.H.H.H.H.H.H.H.H.H.H.H.H.H.H.H.H.H.H.H.H.H.H.H.H.H.H.H.H.H.H.H.H.H.H.H.H.H.H.H.H.H.H.H.H.H.",
"H.H.H.H.H.H.H.H.H.H.H.H.H.H.H.H.H.H.H.H.H.H.H.H.H.H.H.H.H.H.H.H.H.H.H.H.H.H.H.H.H.H.H.H.H.H.H.H.",
"H.H.H.H.H.H.H.H.H.H.H.H.H.H.H.H.H.H.H.H.H.H.H.H.H.H.H.H.H.H.H.H.H.H.H.H.H.H.H.H.H.H.H.H.H.H.H.H.",
"H.H.H.H.H.H.H.H.H.H.H.H.H.H.H.H.H.H.H.H.H.H.H.H.H.H.H.H.H.H.H.H.H.H.H.H.H.H.H.H.H.H.H.H.H.H.H.H.",
"H.H.H.H.H.H.H.H.H.H.H.H.H.H.H.H.H.H.H.H.H.H.H.H.H.H.H.H.H.H.H.H.H.H.H.H.H.H.H.H.H.H.H.H.H.H.H.H.",
"H.H.H.H.H.H.H.H.H.H.H.H.H.H.H.H.H.H.H.H.H.H.H.H.H.H.H.H.H.H.H.H.H.H.H.H.H.H.H.H.H.H.H.H.H.H.H.H.",
"H.H.H.H.H.H.H.H.H.H.H.H.H.H.H.H.H.H.H.H.H.H.H.H.H.H.H.H.H.H.H.H.H.H.H.H.H.H.H.H.H.H.H.H.H.H.H.H.",
"H.H.H.H.H.H.H.H.H.H.H.H.H.H.H.H.H.H.H.H.H.H.H.H.H.H.H.H.H.H.H.H.H.H.H.H.H.H.H.H.H.H.H.H.H.H.H.H.",
"H.H.H.H.H.H.H.H.H.H.H.H.H.H.H.H.H.H.H.H.H.H.H.H.H.H.H.H.H.H.H.H.H.H.H.H.H.H.H.H.H.H.H.H.H.H.H.H.",
"H.H.H.H.H.H.H.H.H.H.H.H.H.H.H.H.H.H.H.H.H.H.H.H.H.H.H.H.H.H.H.H.H.H.H.H.H.H.H.H.H.H.H.H.H.H.H.H.",
"H.H.H.H.H.H.H.H.H.H.H.H.H.H.H.H.H.H.H.H.H.H.H.H.x.C.H.H.H.H.H.H.H.H.H.H.H.H.H.H.H.H.H.H.H.H.H.H.",
"H.H.H.H.H.H.H.H.H.H.H.H.H.H.H.H.H.H.H.H.H.H.H.H.9.Z.H.H.H.H.H.H.H.H.H.H.H.H.H.H.H.H.H.H.H.H.H.H.",
"H.H.H.H.H.H.H.H.H.H.H.H.H.H.H.H.8.C.H.H.H.H.C.9.z.C.H.H.H.9.H.H.H.H.H.H.H.H.H.H.H.H.H.H.H.H.H.H.",
"H.H.H.H.H.H.H.H.H.H.H.H.H.H.H.Z.l.j.&.e.r.G.D.B.q.z.*.Z.V.z.H.H.C.C.V.H.H.H.H.H.H.H.H.H.H.H.H.H.",
"H.H.H.H.H.H.H.H.H.H.H.H.H.H.Z.q.0.0._ _ _ f.f.d.l.0._ z.0.q.H.H.q.z.q.H.H.H.H.H.H.H.H.H.H.H.H.H.",
"H.H.H.H.H.H.H.H.H.H.H.l.0.9.z.l.F.g.d./ _ f.f.d._ $.d.f.S.q.N.F.f.c.q.H.H.H.H.H.H.H.H.H.H.H.H.H.",
"H.H.H.H.H.H.H.H.H.H.H.x.z.k.k.b.F.d.f._ _ s.s.a._ $.f.f.d.9.M.f.S.m.x.H.H.H.H.H.H.H.H.H.H.H.H.H.",
"H.H.H.H.H.H.H.H.{ u.H.l.z.f.f.f.f.f.f./ _ ,.-.-./ ] f.f.d._ v.f.f.v.z.9.0.f.H.H.H.H.H.H.H.H.H.H.",
"H.H.H.H.H.H.v.-.,.,.5.) ) h.N.f./ ^ 2 ,.,.,. .G G C _ 2 > ( ,.,.,.,.z.f.g.f.f.h.H.H.H.H.H.H.H.H.",
"H.H.H.H.H.H.s.<.=.-.-._ / g.f.d._ ~ 2 ,.:.-.o.G G C / = , _ [ ,.-.<.9.N.f.f.N.F.H.H.H.H.H.H.H.H.",
"H.H.H.H.H.H.H.H.5.2.G G U 1 3.-.,.1.G G I ,.C U S D =.:.-.: 3.,.G G G S.f.f.H.H.H.H.H.H.H.H.H.H.",
"H.H.H.H.H.H.H.e.` X.G G G L C C ;.1.G G U E W W 3 8 =.N  .F 6 7 G G F %.#.7.u.v.p.n.H.H.H.H.H.H.",
"H.H.H.H.H.H.*.( ) X.L S G I G G ,.4.K G G Y E Y 3 : 8.U G G 3 2 G U P ' _ ,.5.,.-.t.H.H.H.H.H.H.",
"H.H.H.H.H.H.H.H.Y Y T ) _ G G G E Y T 2 > Y y d g h = Z Z G < 1 2 4 ( T T -.a.h.H.H.H.H.H.H.H.H.",
"H.H.H.H.H.H.H.H.W W Y #...F A A E Y n , 3 Q r l d d 2 I I V : : 2 5 #.M ! ;.i.f.H.H.H.H.H.H.H.H.",
"H.H.H.H.H.z d d d y Y 1 = X m T Y v d h s . f l d h > X + T T T > 2 d d d T a.f.E R R H.H.H.H.H.",
"H.H.H.H.H.H.H d s h ,   + q q d Y n d h w E E Y 2 = X f k k } T T M d d w ( e h d t T H.H.H.H.H.",
"H.H.H.H.H.H.J q d q 2 X + l d d T M d h d Y T Y > = X k l d M R Y N d d d ` e d d y E H.H.H.H.H.",
"H.H.H.H.H.H.O.T T b X , 2 d d d E Y E + X T t h w h + k l l ! Y l d k > 2 X f d d H H.H.H.H.H.H.",
"H.H.H.H.H.H.@.T i r a b m m * o T M u a f & j k l p m v C % & & d d d N n c M n n w.H.H.H.H.H.H.",
"H.H.H.H.H.H.@.T q d g Y Y R O . T W d h w X f d d p T Y R @ @ X d s d R T Y Y Y Y @.H.H.H.H.H.H.",
"H.H.H.H.H.H.; + z l d Y E d d q @ o g h s X + + + # Y w d d o X + X @ E T l z w T +.H.H.H.H.H.H.",
"H.H.H.H.H.H.H.- h f f b m d d k @ & f f f X + + X # b 0 d d o X X X X N | z d x +.H.H.H.H.H.H.H.",
"H.H.H.H.H.H.H.H.X @ @ @ @ z l p @ @ @ @ @ @ # @ @ @ . j z l X # @ @ @ @ + l l q H.H.H.H.H.H.H.H.",
"H.H.H.H.H.H.H.H.H.H.H.H.H.H.H.H.H.H.H.H.H.H.H.H.H.H.H.H.H.H.H.H.H.H.H.H.H.H.H.H.H.H.H.H.H.H.H.H.",
"H.H.H.H.H.H.H.H.H.H.H.H.H.H.H.H.H.H.H.H.H.H.H.H.H.H.H.H.H.H.H.H.H.H.H.H.H.H.H.H.H.H.H.H.H.H.H.H.",
"H.H.H.H.H.H.H.H.H.H.H.H.H.H.H.H.H.H.H.H.H.H.H.H.H.H.H.H.H.H.H.H.H.H.H.H.H.H.H.H.H.H.H.H.H.H.H.H.",
"H.H.H.H.H.H.H.H.H.H.H.H.H.H.H.H.H.H.H.H.H.H.H.H.H.H.H.H.H.H.H.H.H.H.H.H.H.H.H.H.H.H.H.H.H.H.H.H.",
"H.H.H.H.H.H.H.H.H.H.H.H.H.H.H.H.H.H.H.H.H.H.H.H.H.H.H.H.H.H.H.H.H.H.H.H.H.H.H.H.H.H.H.H.H.H.H.H.",
"H.H.H.H.H.H.H.H.H.H.H.H.H.H.H.H.H.H.H.H.H.H.H.H.H.H.H.H.H.H.H.H.H.H.H.H.H.H.H.H.H.H.H.H.H.H.H.H.",
"H.H.H.H.H.H.H.H.H.H.H.H.H.H.H.H.H.H.H.H.H.H.H.H.H.H.H.H.H.H.H.H.H.H.H.H.H.H.H.H.H.H.H.H.H.H.H.H.",
"H.H.H.H.H.H.H.H.H.H.H.H.H.H.H.H.H.H.H.H.H.H.H.H.H.H.H.H.H.H.H.H.H.H.H.H.H.H.H.H.H.H.H.H.H.H.H.H.",
"H.H.H.H.H.H.H.H.H.H.H.H.H.H.H.H.H.H.H.H.H.H.H.H.H.H.H.H.H.H.H.H.H.H.H.H.H.H.H.H.H.H.H.H.H.H.H.H.",
"H.H.H.H.H.H.H.H.H.H.H.H.H.H.H.H.H.H.H.H.H.H.H.H.H.H.H.H.H.H.H.H.H.H.H.H.H.H.H.H.H.H.H.H.H.H.H.H.",
"H.H.H.H.H.H.H.H.H.H.H.H.H.H.H.H.H.H.H.H.H.H.H.H.H.H.H.H.H.H.H.H.H.H.H.H.H.H.H.H.H.H.H.H.H.H.H.H.",
"H.H.H.H.H.H.H.H.H.H.H.H.H.H.H.H.H.H.H.H.H.H.H.H.H.H.H.H.H.H.H.H.H.H.H.H.H.H.H.H.H.H.H.H.H.H.H.H.",
"H.H.H.H.H.H.H.H.H.H.H.H.H.H.H.H.H.H.H.H.H.H.H.H.H.H.H.H.H.H.H.H.H.H.H.H.H.H.H.H.H.H.H.H.H.H.H.H."
};
