/* XPM */
static char *result[] = {
/* columns rows colors chars-per-pixel */
"48 48 11 1 ",
"  c black",
". c #010300",
"X c red",
"o c #489110",
"O c #6FE019",
"+ c #E89C58",
"@ c #FFAB61",
"# c #DC2EFF",
"$ c #FF9D8A",
"% c #FFFFF5",
"& c None",
/* pixels */
"&&&&&&&&&&&&&&&&&&&&&&&&&&&&&&&&&&&&&&&&&&&&&&&&",
"&&&&&&&&&&&&&&&&&&&&&&&&&       &&&&&&&&&&&&&&&&",
"&&&&&&&&&&&&&&&&&&&&&    XXXXXXX   &&&&&&&&&&&&&",
"&&&&&&&&&&&&&&&&&&  XXXXXXXXXXXXXXX  &&&&&&&&&&&",
"&&&&&&&&&&&&&&&&  XXXXXXXXXXXXXXXXXXX   &&&&&&&&",
"&&&&&&&&&&&&&&& XXXXXXXXXXXXXXXXXXXXXXXX &&&&&&&",
"&&&&&&&&&&&&&& XXXXXXXXXXXXXXXXXXXXXXXXX &&&&&&&",
"&&&&&&&&&&&&& XXXXXXXXXXXXXXXXXXXXXXXXXX &&&&&&&",
"&&&&&&&&&&&&& XXXXXXXXXXXXXXXX    XXXXXXX &&&&&&",
"&&&&&&&&&&&& XXXXXXXXXXXXXXXX XXX XXXXXXX &&&&&&",
"&&&&&&&&&&& XXXXXXXXXXXXXXXX +   XXXXXXXX &&&&&&",
"&&&&&&&&&&& XXXXXXXXXXXXXXX +++++  XXXXXX &&&&&&",
"&&&&&&&&&  XXXXXXXXXXXX   ++@@@@@+ XXXXXX &&&&&&",
"&&&&&&&&&  XXXXXXXXXXX ++++@@@@@@+ XXXXXX &&&&&&",
"&&&&&&&& XXXXXXXXXXX  +@@@@@@@@@@++ XXXXX &&&&&&",
"&&&&&&&& XXXXXXXXXX ++@@@@@@@@@@@@++ XXXX &&&&&&",
"&&&&&&&& XXXXXXX   % @@@@@@@@@@@@ %  XXXX &&&&&&",
"&&&&&&&& XXXXX  ++   @@@@@@@@@@@@   @  X &&&&&&&",
"&&&&&&&& XXXX X $$   @@@@@@@@@@@@   $  X &&&&&&&",
"&&&&&&&& XXXXXX %%$$@@@@@ @@ @@@@%$$$  X &&&&&&&",
"&&&&&&&& XX XXX $$$$@@@@@@  @@@@@$$$ XXX &&&&&&&",
"&&&&&&&&&  X  XX  @@@@@@@@@@@@@@@@@@ XX &&&&&&&&",
"&&&&&&&&&&& XX XXX  @@@@@@@@@@@@@@@ XXX &&&&&&&&",
"&&&&&&&&&&& XX XXXXX   @@@@@@@     XX  &&&&&&&&&",
"&&&&&&&&&&& XXXXXXXXXXX   @@  XXXXXX &&&&&&&&&&&",
"&&&&&&&&&&& XXXXXXXXXXX  @@@@   XX  &&&&&&&&&&&&",
"&&&&&&&&   XXXXXXXXXXX @@@@@@@@@  &&&&&&&&&&&&&&",
"&&&&&&& XXXXXXXXXXXXXX @@@@@@@@@@ &&&&&&&&&&&&&&",
"&&&&&& XXXXXXXXXXXXXXX @@  @  @@@ &&&&&&&&&&&&&&",
"&&&&&& XXXXXXXXXXXXXX @  ## ##  @ &&&&&&&&&&&&&&",
"&&&&& XXXXXXXXXXXXXXX @  # @ #  @ &&&&&&&&&&&&&&",
"&&&&& XXXXXXXXXXXXXXX @@@ @@@   @ &&&&&&&&&&&&&&",
"&&&&& XXXXXXXXXXXXX   @@@ @@@@  @@ &&&&&&&&&&&&&",
"&&&&& XXXXXXXXX    & @@  @@ @@@@ @@ &&&&&&&&&&&&",
"&&&&&& XXXXXX  &&&&& @@   @@@@   @@ &&&&&&&&&&&&",
"&&&&&&& XXXX &&&&&&&&    O.   oo   &&&&&&&&&&&&&",
"&&&&&&&&&  X &&&&&&&&&&  OOOOOoo &&&&&&&&&&&&&&&",
"&&&&&&&&    &&&&    &&&..OOOOOoo &&&&&&&&&&&&&&&",
"&&&&&&&&&&&&&&& OOOO &&  OOOOooo &&&&&&&&&&&&&&&",
"&&&&&&&&&&&&&&&&  OOO  OOOOOOooo &&&&&&&&&&&&&&&",
"&&&&&&&&&&&&&&&&&& OOOOOOOOOOo  &&&&&&&&&&&&&&&&",
"&&&&&&&&&&&&&&&&&&& OOOOOOOOoo  &&&&&&&&&&&&&&&&",
"&&&&&&&&&&&&&&&&&&& OOOOOOOoo &&&&&&&&&&&&&&&&&&",
"&&&&&&&&&&&&&&&&&& Ooooooooo &&&&&&&&&&&&&&&&&&&",
"&&&&&&&&&&&&&&&&  Ooo       &&&&&&&&&&&&&&&&&&&&",
"&&&&&&&&&&&&&&& oooo &&&&&&&&&&&&&&&&&&&&&&&&&&&",
"&&&&&&&&&&&&&&&&    &&&&&&&&&&&&&&&&&&&&&&&&&&&&",
"&&&&&&&&&&&&&&&&&&&&&&&&&&&&&&&&&&&&&&&&&&&&&&&&"
};
