/* XPM */
static char *b89004dfb8814dabf4cdef51f85abedaRB1ILWt0AoTc7mK9[] = {
/* columns rows colors chars-per-pixel */
"48 48 18 1 ",
"  c None",
". c #C71212",
"X c #C71313",
"o c #FF4242",
"O c #FF4343",
"+ c #009161",
"@ c #009162",
"# c #029162",
"$ c #801ABA",
"% c #811BBA",
"& c #BB00FF",
"* c #00C986",
"= c #00FF80",
"- c #2693FF",
"; c #24C5FF",
": c #FFDFBF",
"> c #FFC4F1",
", c white",
/* pixels */
"                                                ",
"                                                ",
"                                                ",
"                  ....X.....                    ",
"                ..ooooOooooo....                ",
"          ......ooooooOooooooooo..              ",
"        ..oooooooooooooooooooooooo.             ",
"        ..ooooooooooooOooooooooooo.             ",
"        ..ooo.....oooooooooooooooo.             ",
"        ..ooo.........X.......o...o..           ",
"          ...oooo:::::::::::::.oooo..           ",
"          ...oooo:::::::::::::.oooo..           ",
"             .ooo:;;,::::,,;::.oooo..           ",
"             .ooo:---::::---::ooooo..           ",
"             .ooo>>>:::::::>>>.ooo.             ",
"             .ooo>>>:::::::>>>.ooo.             ",
"           ..oooo:::::::::::::.oooo..           ",
"           ..ooooo::::::::::..ooooooo.          ",
"           ..oooooooo::::...ooooooooo...        ",
"           XXOOoO:::::::::::::OOOOOOOOXX        ",
"           ..oooo:::::::::::::oooooooo..        ",
"          .ooooo::$$$:::$$$::::ooooooo..        ",
"          .ooo:::$&&&$%$&&&$:::ooooooo..        ",
"           ..o:::$&&&$%$&&&$:::oooooo.          ",
"           ..o:::$&&&$$$&&&$:::oooooo.          ",
"             .::::$$$:::$$$::::ooo...           ",
"             ::::...:::::::.::::X.              ",
"             ::: +++:::::::+++::                ",
"             ::: +++:::::::+++::                ",
"                +===+++:+++===+   +++           ",
"                 +**=**+*==*++  ++===+          ",
"                  +++++*++++    ++=**++++       ",
"                  ++***+===+    ++=**====+      ",
"                  ++***+===+    ++=**====+      ",
"                  ++***====+      +==****+      ",
"                  ++****===+  ++++=***++++      ",
"                  ++****===+++====***+          ",
"                  ++****===+++====***+          ",
"                    +****=======*****+          ",
"                    +******====******+          ",
"                     +++**********+++           ",
"                     +++**********+++           ",
"                       +++++****++              ",
"                            ++++                ",
"                                                ",
"                                                ",
"                                                ",
"                                                "
};
