/* XPM */
static char *result[] = {
/* columns rows colors chars-per-pixel */
"48 48 156 2 ",
"   c black",
".  c #010000",
"X  c #5E0000",
"o  c #00673C",
"O  c #00653E",
"+  c #01683D",
"@  c #016740",
"#  c #006742",
"$  c #046542",
"%  c #006545",
"&  c #026747",
"*  c #056645",
"=  c #006C45",
"-  c #026E4A",
";  c #007E53",
":  c #B50100",
">  c #B70100",
",  c #B60300",
"<  c #B60201",
"1  c #B40202",
"2  c #B20400",
"3  c #B70400",
"4  c #B00005",
"5  c #B60205",
"6  c #B80300",
"7  c #B80201",
"8  c #BF0101",
"9  c #B80500",
"0  c #B90004",
"q  c #B80606",
"w  c #B50900",
"e  c #C50000",
"r  c #C2010C",
"t  c #E7010B",
"y  c #EC070E",
"u  c #EB090B",
"i  c #EB0B0B",
"p  c #EB090D",
"a  c #ED080F",
"s  c #EC0A0E",
"d  c #EE0C0E",
"f  c #EE0910",
"g  c #F00D14",
"h  c #E91112",
"j  c #F31C1A",
"k  c #F41D1B",
"l  c #FA1C1B",
"z  c #FF1F1D",
"x  c #FE1C1E",
"c  c #FE1E1E",
"v  c #FF1E1F",
"b  c #FF1F1F",
"n  c #FF221F",
"m  c #FF1E20",
"M  c #FF1F20",
"N  c #F42724",
"B  c #FF2122",
"V  c #FD2322",
"C  c #F92D22",
"Z  c #B44206",
"A  c #B5410C",
"S  c #B2440F",
"D  c #B8400B",
"F  c #B64911",
"G  c #FA793F",
"H  c #FD783F",
"J  c #FC4A40",
"K  c #FF4A43",
"L  c #FF4D43",
"P  c #FC4945",
"I  c #FF4944",
"U  c #FF4A45",
"Y  c #FE4B47",
"T  c #FF6E42",
"R  c #FD7742",
"E  c #FE7642",
"W  c #FD7345",
"Q  c #FE7445",
"!  c #FE7547",
"~  c #FF7647",
"^  c #F77843",
"/  c #FB7A40",
"(  c #FD7948",
")  c #FA7E4B",
"_  c #00875A",
"`  c #01855D",
"'  c #00865D",
"]  c #02845E",
"[  c #03855F",
"{  c #00885B",
"}  c #018860",
"|  c #008B61",
" . c #4F9E67",
".. c #4E9C68",
"X. c #539D6C",
"o. c #FF956E",
"O. c #FA9A68",
"+. c #FB9E68",
"@. c #FF9C69",
"#. c #FF9B6D",
"$. c #FF9D6E",
"%. c #FF9D6F",
"&. c #FF9F6F",
"*. c #FF9376",
"=. c #FF9A71",
"-. c #FF9C73",
";. c #FDA06A",
":. c #FFA66E",
">. c #FFA872",
",. c #F6A578",
"<. c #5E4392",
"1. c #5B4295",
"2. c #5C4396",
"3. c #5E4296",
"4. c #5F4398",
"5. c #5F429C",
"6. c #624891",
"7. c #826CAC",
"8. c #836CB0",
"9. c #00AF81",
"0. c #00AF84",
"q. c #00B080",
"w. c #00B081",
"e. c #00B183",
"r. c #07B286",
"t. c #00BB88",
"y. c #FFBB90",
"u. c #FDBD97",
"i. c #8CD69B",
"p. c #89D69E",
"a. c #A7D4A9",
"s. c #A4D8A8",
"d. c #A0DFB2",
"f. c #F3C093",
"g. c #FBC392",
"h. c #FEC193",
"j. c #FFC293",
"k. c #FBC690",
"l. c #FFC297",
"z. c #FDC594",
"x. c #FFC198",
"c. c #FFC29D",
"v. c #FFC49D",
"b. c #A18CC3",
"n. c #C7EFCD",
"m. c #CBEDCA",
"M. c #CAF0CC",
"N. c #DFEEDB",
"B. c #D3F0D2",
"V. c #D1F2D3",
"C. c #D4F1D5",
"Z. c #E3F2FD",
"A. c #FFFEFB",
"S. c #FEFFFF",
"D. c white",
"F. c None",
/* pixels */
"F.F.F.F.F.F.F.F.F.F.F.F.F.F.F.D.K z z p p z D.K K K z K S.D.F.F.F.F.F.F.F.F.F.F.F.F.F.F.F.F.F.F.",
"F.F.F.F.F.F.F.F.F.F.F.F.F.F.K M l u p , 7 U v z u i u u V K F.F.F.F.F.F.F.F.F.F.F.F.F.F.F.F.F.F.",
"F.F.F.F.F.F.F.F.F.F.F.F.F.K z z s p 7 I K K z p p p 7 7 x K K F.F.F.F.F.F.F.F.F.F.F.F.F.F.F.F.F.",
"F.F.F.F.F.F.F.F.F.F.F.F.K v z p p 7 7 K z z s p p 3 7 7 y z K F.F.F.F.F.F.F.F.F.F.F.F.F.F.F.F.F.",
"F.F.F.F.F.F.F.F.F.F.F.F.M z u p e m J l z u p p E w 7 7 g z K F.F.F.F.F.F.F.F.F.F.F.F.F.F.F.F.F.",
"F.F.F.F.F.F.F.F.F.F.P z z s p p 7 K K s p p p R $.H 7 7 p z K F.F.F.F.F.F.F.F.F.F.F.F.F.F.F.F.F.",
"F.F.F.F.F.F.F.F.F.F.K z z p p 7 I K z p p p c $.x.x.R 7 p p F.F.F.F.F.F.F.F.F.F.F.F.F.F.F.F.F.F.",
"F.F.F.F.F.F.F.F.F.Y K u p p , 7 N u p p p , :.g.x.x.x.p p , F.F.F.F.F.F.F.F.F.F.F.F.F.F.F.F.F.F.",
"F.F.F.F.F.F.F.F.F.p v p p 9 7 K s p p p 7 R z.x.x.x.x.p 3 F.F.F.F.F.F.F.F.F.F.F.F.F.F.F.F.F.F.F.",
"F.F.F.F.F.F.F.F.p p f p p 7 K K p p p 3 X X x.x.x.X X p 3 z F.F.F.F.F.F.F.F.F.F.F.F.F.F.F.F.F.F.",
"F.F.F.F.F.F.F.F., p k 7 , 8 , , , , / :.g.g.u.x.j.x.x., y z Y F.F.F.F.F.F.F.F.F.F.F.F.F.F.F.F.F.",
"F.F.F.F.F.F.F.F.p p s p p 3 7 7 x R R z.D.D.x.x.x.D.x.7 y z K F.F.F.F.F.F.F.F.F.F.F.F.F.F.F.F.F.",
"F.F.F.F.F.F.F.5 p K s p p 3 7 z ! $.$.A.Z.  x.x.D.. x.7 p z K F.F.F.F.F.F.F.F.F.F.F.F.F.F.F.F.F.",
"F.F.F.F.F.F.F.5 p K z p E F 7 z >.g.x.A.Z.  x.x.D.. x.7 p z K F.F.F.F.F.F.F.F.F.F.F.F.F.F.F.F.F.",
"F.F.F.F.F.F.F.5 p K p R $.$.$.7 $.x.x.x.x.x.x.x.x.x.x.7 p z K F.F.F.F.F.F.F.F.F.F.F.F.F.F.F.F.F.",
"F.F.F.F.F.F.F.5 p K p 7 R $.$.R &.x.x.x.x.x.=.A x.x.x.7 p K K F.F.F.F.F.F.F.F.F.F.F.F.F.F.F.F.F.",
"F.F.F.F.F.F.F.5 p z p a 7 q 0 ~ $.-.x.x.x.B x.x.x.x.: a F.F.F.F.F.F.F.F.F.F.F.F.F.F.F.F.F.F.F.F.",
"F.F.F.F.F.F.F.5 p z p p 7 7 7 z ;.$.$.x.x.x.n n x.F.7 F.F.F.F.F.F.F.F.F.F.F.F.F.F.F.F.F.F.F.F.F.",
"F.F.F.F.F.F.F.y p z p p 7 7 7 7 ^ R $.z.x.x.x.x.F.F.F.F.F.F.F.F.F.F.F.F.F.F.F.F.F.F.F.F.F.F.F.F.",
"F.F.F.F.F.F.F.y b M d p 7 7 7 7 c.c.D S S Z @.F.F.F.F.F.F.F.F.F.F.F.F.F.F.F.F.F.F.F.F.F.F.F.F.F.",
"F.F.F.F.F.F.F.y z z s p 7 7 7 7 x.x.x.x.x.x.x.F.F.F.F.F.F.F.F.F.F.F.F.F.F.F.F.F.F.F.F.F.F.F.F.F.",
"F.F.F.F.F.F.7 y p z s p p 7 7 x.x.x.x.x.x.$.x.F.F.F.F.F.F.F.F.F.F.F.F.F.F.F.F.F.F.F.F.F.F.F.F.F.",
"F.F.F.F.F.F.7 y z M p , p v.x.x.,.1.<.5.7.4.6.F.F.F.F.F.F.F.F.F.F.F.F.F.F.F.F.F.F.F.F.F.F.F.F.F.",
"F.F.F.F.F.K 7 y K z s p 7 l.x.x.2.8.8.b.3.$.8.3.z z z K K K K F.F.F.F.F.F.F.F.F.F.F.F.F.F.F.F.F.",
"F.F.F.F.F.K 7 y K z s p 7 x.x.$.G 3.3.3.$.$.3.R x.p p p z z z K K K F.F.F.F.F.F.F.F.F.F.F.F.F.F.",
"F.F.F.F.F.K F.y y M p p h.x.-.6 ) +.+.k.x.x.T x.x.< > > t L J F.F.F.F.F.F.F.F.F.F.F.F.F.F.F.F.F.",
"F.F.F.F.F.K F.7 p p p z x.x.$.7 7 $.x.x.x.x.7 $.x.x.x.x.7 7 7 F.x.$.F.F.F.F.F.F.F.F.F.F.F.F.F.F.",
"F.F.F.F.P F.F.7 7 7 p x.x.x.$.p 7 $.x.x.x.x.7 $.x.x.x.x.x.x.x.x.x.$.F.F.F.F.F.F.F.F.F.F.F.F.F.F.",
"F.F.F.F.F.F.F.5 7 m f.x.x.O.p X.*.$.x.x.x.x.N.C.6 o.-.-.-.6 6 W H H C Y F.F.F.F.F.F.F.F.F.F.F.F.",
"F.F.F.F.F.F.F.F.F.x.x.x.$.p ..B.#.$.x.x.x.x.=.B.B.7 7 7 p p p c z z z z K F.F.F.F.F.F.F.F.F.F.F.",
"F.F.F.F.F.F.F.F.F.x.Q R 7 p ..s.( $.x.x.R x.=.s...7 7 7 p p p p p p p p p F.F.F.F.F.F.F.F.F.F.F.",
"F.F.F.F.F.F.F.y.F.F.4 7 7 7 2  .M.V.~ %.x.x.d.o 0.r , , j , , , 7 7 7 , , h F.F.F.F.F.F.F.F.F.F.",
"F.F.F.F.F.x.$.x.F.F.F.7 7 7 @ @ ..s.s.a.R B.O ' 0.0.0.0.1 7 F.F.F.F.F.F.F.x p F.F.F.F.F.F.F.F.F.",
"F.F.F.F.F.F.F.F.F.F.F.F.7 7 @ @ @ @ ..B.s.B._ ' 0.0.0.0.0.0.0.F.F.F.F.F.F.F.z K F.F.F.F.F.F.F.F.",
"F.F.F.F.F.F.F.F.F.F.F.F.F.D.@ @ ; $ { { + ` ' 9.[ r.0.0.0.[ 0.0.0.0.0.0.q.F.F.F.F.F.F.F.F.F.F.F.",
"F.F.F.F.F.F.F.F.F.F.F.F.F.F.@ @ * ' @ * ' ' ' ' 0.' ' ' ] 0.0.0.0.' 0.0.0.0.F.F.F.F.F.F.F.F.F.F.",
"F.F.F.F.F.F.F.F.F.F.F.F.F.F.F.@ _ @ ' ' ' ' ' ' ' ' ' ' e.' ' ' ' 0.0.0.0.0.0.F.F.F.F.F.F.F.F.F.",
"F.F.F.F.F.F.F.F.F.F.F.F.F.F.F.F.@ $ ' - { $ - { $ = $ ' = $ $ $ % $ } 9.0.0.F.F.F.F.F.F.F.F.F.F.",
"F.F.F.F.F.F.F.F.F.F.F.F.F.F.F.F.# @ @ @ @ @ _ @ @ @ @ @ w.0.0.0.0.0.& ' 0.0.F.F.F.F.F.F.F.F.F.F.",
"F.F.F.F.F.F.F.F.F.F.F.F.F.F.F.F.F.F.@ @ @ @ @ @ @ @ 0.0.] 0.0.0.0.0.0.0.0.' F.F.F.F.F.F.F.F.F.F.",
"F.F.F.F.F.F.F.F.F.F.F.F.F.F.F.F.F.F.p.p.p.F.F.F.q.t.9.[ | ' $ $ $ $ ' ' ' $ F.F.F.F.F.F.F.F.F.F.",
"F.F.F.F.F.F.F.F.F.F.F.F.F.F.F.i.m.n.n.n.n.F.F.F.' ] ' @ @ @ @ @ @ @ @ @ @ F.F.F.F.F.F.F.F.F.F.F.",
"F.F.F.F.F.F.F.F.F.F.F.F.F.F.F.F.F.F.i.i.i.F.F.F.F.* @ F.F.F.F.F.F.F.@ @ @ F.F.F.F.F.F.F.F.F.F.F.",
"F.F.F.F.F.F.F.F.F.F.F.F.F.F.F.F.F.F.F.F.p.F.F.F.F.F.F.F.F.F.F.F.F.F.F.F.F.F.F.F.F.F.F.F.F.F.F.F.",
"F.F.F.F.F.F.F.F.F.F.F.F.F.F.F.F.F.F.F.i.i.i.F.n.i.F.F.F.F.F.F.F.F.F.F.F.F.F.F.F.F.F.F.F.F.F.F.F.",
"F.F.F.F.F.F.F.F.F.F.F.F.F.F.F.F.F.F.F.F.F.F.F.i.i.F.F.F.F.F.F.F.F.F.F.F.F.F.F.F.F.F.F.F.F.F.F.F.",
"F.F.F.F.F.F.F.F.F.F.F.F.F.F.F.F.F.F.F.F.F.F.F.F.F.F.F.F.F.F.F.F.F.F.F.F.F.F.F.F.F.F.F.F.F.F.F.F.",
"F.F.F.F.F.F.F.F.F.F.F.F.F.F.F.F.F.F.F.F.F.F.F.F.F.F.F.F.F.F.F.F.F.F.F.F.F.F.F.F.F.F.F.F.F.F.F.F."
};
