/* XPM */
static char *result[] = {
/* columns rows colors chars-per-pixel */
"48 48 5 1 ",
"  c #1F4BFF",
". c #4772FF",
"X c #30BAFF",
"o c white",
"O c None",
/* pixels */
"OOOOOOOOOOOOOOOOOOOOOOOOOOOOOOOOOOOOOOOOOOOOOOOO",
"OOOOOOOOOOOOOOOOOXXXXXXXXXXXOOOOOOOOOOOOOOOOOOOO",
"OOOOOOOOOOOOOOOOOXXXXXXXXXXXOOOOOOOOOOOOOOOOOOOO",
"OOOOOOOOOOOOOXXXXXX........XXXXXOOOOOOOOOOOOOOOO",
"OOOOOOOOOOOOXXX    ............XXOOOOOOOOOOOOOOO",
"OOOOOOOOOOOOXXX    ............XXOOOOOOOOOOOOOOO",
"OOOOOOOOOXXXX   ................XXXXOOOOOOOOOOOO",
"OOOOOOOOXXX    ....................XXOOOOOOOOOOO",
"OOOOOOOOXXX    ....................XXOOOOOOOOOOO",
"OOOOOOOXX   ........................XXXOOOOOOOOO",
"OOOOOOOX   ..........................XXOOOOOOOOO",
"OOOOOOOX   ..........................XXOOOOOOOOO",
"OOOOOXXX   ..........................XXXOOOOOOOO",
"OOOOXXX  ..............................XXOOOOOOO",
"OOOOXXX  ..............................XXOOOOOOO",
"OOOOX    ...............ooooo...........XOOOOOOO",
"OOOOX   ................ooooo...........XOOOOOOO",
"OOOXX   .................oooooo.........XXXOOOOO",
"OOOXX   .................oooooo.........XXXOOOOO",
"OOOX    ...................ooooo.........XXOOOOO",
"OOOX   ....................oooooo........XXOOOOO",
"OOOX   ....................oooooo........XXOOOOO",
"OOOX   .....................ooooo........XXOOOOO",
"OOOX   .....................ooooo........XXOOOOO",
"OOOX   .....................ooooo........XXOOOOO",
"OOOX   .....................ooooo........XXOOOOO",
"OOOX    ....................ooooo........XXOOOOO",
"OOOX    ....................ooooo........XXOOOOO",
"OOOXX   ....................ooooo.......XXXOOOOO",
"OOOOX   ....................oooo........XOOOOOOO",
"OOOOX   ....................oooo........XOOOOOOO",
"OOOOX    ..................ooooo........XOOOOOOO",
"OOOOXXX  ..................ooooo.......XXOOOOOOO",
"OOOOOXXX   ..............oooo........XXXOOOOOOOO",
"OOOOOXXX   ..............oooo........XXXOOOOOOOO",
"OOOOOOOX    .............ooo.........XXOOOOOOOOO",
"OOOOOOOXX    .......................XXXOOOOOOOOO",
"OOOOOOOXX    .......................XXXOOOOOOOOO",
"OOOOOOOOXXX    ....................XXOOOOOOOOOOO",
"OOOOOOOOOXXXX    ...............XXXXOOOOOOOOOOOO",
"OOOOOOOOOXXXX    ...............XXXXOOOOOOOOOOOO",
"OOOOOOOOOOOOXXX     ...........XXOOOOOOOOOOOOOOO",
"OOOOOOOOOOOOOXXXXXX    ....XXXXXOOOOOOOOOOOOOOOO",
"OOOOOOOOOOOOOXXXXXX    ....XXXXXOOOOOOOOOOOOOOOO",
"OOOOOOOOOOOOOOOOOXXXXXXXXXXXOOOOOOOOOOOOOOOOOOOO",
"OOOOOOOOOOOOOOOOOOOOOOOOOOOOOOOOOOOOOOOOOOOOOOOO",
"OOOOOOOOOOOOOOOOOOOOOOOOOOOOOOOOOOOOOOOOOOOOOOOO",
"OOOOOOOOOOOOOOOOOOOOOOOOOOOOOOOOOOOOOOOOOOOOOOOO"
};
