/* XPM */
static char *result[] = {
/* columns rows colors chars-per-pixel */
"48 48 5 1 ",
"  c #7393FF",
". c #B5D5FF",
"X c #B0E7FF",
"o c white",
"O c None",
/* pixels */
"OOOOOOOOOOOOOOOOOOOOOOOOOOOOOOOOOOOOOOOOOOOOOOOO",
"OOOOOOOOOOOOOOOOOOOOOOOOOOOOOOOOOOOOOOOOOOOOOOOO",
"OOOOOOOOOOOOOOOOOOOOOOOOOOOOOOOOOOOOOOOOOOOOOOOO",
"OOOOOOOOOOOOOOOOOOXXXXXXXXXXOOOOOOOOOOOOOOOOOOOO",
"OOOOOOOOOOOOOOOXXXXX.......XXXXXOOOOOOOOOOOOOOOO",
"OOOOOOOOOOOOOOXX    ...........XXOOOOOOOOOOOOOOO",
"OOOOOOOOOOOOOOXX    ...........XXOOOOOOOOOOOOOOO",
"OOOOOOOOOOOXXXX  ...............XXXXOOOOOOOOOOOO",
"OOOOOOOOOOXX    ..................XXXOOOOOOOOOOO",
"OOOOOOOOOXX   ......................XXOOOOOOOOOO",
"OOOOOOOOOXX   ......................XXOOOOOOOOOO",
"OOOOOOOOOX  .........................XOOOOOOOOOO",
"OOOOOOOXXX  ...........................OOOOOOOOO",
"OOOOOOXXX  ...................oooo.....XXOOOOOOO",
"OOOOOOXXX  ...................oooo.....XXOOOOOOO",
"OOOOOOX    ...................oooo.....XXOOOOOOO",
"OOOOOOX   .....................ooooo...XXOOOOOOO",
"OOOOOXX   ......................ooooo..XXXOOOOOO",
"OOOOOXX   ......................ooooo..XXXOOOOOO",
"OOOOOX    ......................oooooo...XOOOOOO",
"OOOOOX   ........................ooooo...XOOOOOO",
"OOOOOX   ........................ooooo...XOOOOOO",
"OOOOOX   ........................ooooo...XOOOOOO",
"OOOOOX   ........................ooooo...XOOOOOO",
"OOOOOX   ........................ooooo...XOOOOOO",
"OOOOOX    .......................ooooo...XOOOOOO",
"OOOOOX    .......................ooooo...XOOOOOO",
"OOOOOXX   .......................oooo..XXXOOOOOO",
"OOOOOOX   ......................ooooo..XXOOOOOOO",
"OOOOOOX    .....................ooooo..XXOOOOOOO",
"OOOOOOX    .....................ooooo..XXOOOOOOO",
"OOOOOOXXX  ....................ooo.....XXOOOOOOO",
"OOOOOOOXXX  ...................oo......OOOOOOOOO",
"OOOOOOOOOX    .........................OOOOOOOOO",
"OOOOOOOOOX    .........................OOOOOOOOO",
"OOOOOOOOOXX    .....................XXOOOOOOOOOO",
"OOOOOOOOOOXX    ..................XXXOOOOOOOOOOO",
"OOOOOOOOOOOXXXX   ..............XXXXOOOOOOOOOOOO",
"OOOOOOOOOOOXXXX   ..............XXXXOOOOOOOOOOOO",
"OOOOOOOOOOOOOOXX     ..........XXOOOOOOOOOOOOOOO",
"OOOOOOOOOOOOOOOXXXXX   ....XXXXXOOOOOOOOOOOOOOOO",
"OOOOOOOOOOOOOOOOOOXXXXXXXXXXOOOOOOOOOOOOOOOOOOOO",
"OOOOOOOOOOOOOOOOOOXXXXXXXXXXOOOOOOOOOOOOOOOOOOOO",
"OOOOOOOOOOOOOOOOOOOOOOOOOOOOOOOOOOOOOOOOOOOOOOOO",
"OOOOOOOOOOOOOOOOOOOOOOOOOOOOOOOOOOOOOOOOOOOOOOOO",
"OOOOOOOOOOOOOOOOOOOOOOOOOOOOOOOOOOOOOOOOOOOOOOOO",
"OOOOOOOOOOOOOOOOOOOOOOOOOOOOOOOOOOOOOOOOOOOOOOOO",
"OOOOOOOOOOOOOOOOOOOOOOOOOOOOOOOOOOOOOOOOOOOOOOOO"
};
