/* XPM */
static char *result[] = {
/* columns rows colors chars-per-pixel */
"48 48 5 1 ",
"  c #488787",
". c #71D4D4",
"X c #82F5F5",
"o c white",
"O c None",
/* pixels */
"OOOOOOOOOOOOOOOOOOOOOOOOOOOOOOOOOOOOOOOOOOOOOOOO",
"OOOOOOOOOOOOOOOOOOOOOOOOOOOOOOOOOOOOOOOOOOOOOOOO",
"OOOOOOOOOOOOOOOOOOOOOOOOOOOOOOOOOOOOOOOOOOOOOOOO",
"OOOOOOOOOOOOOOOOOOOOOOOOOOOOOOOOOOOOOOOOOOOOOOOO",
"OOOOOOOOOOOOOOOOOOOOOOOOOOOOOOOOOOOOOOOOOOOOOOOO",
"OOOOOOOOOOOOOOOOOOOOOOOOOOOOOOOOOOOOOOOOOOOOOOOO",
"OOOOOOOOOOOOOOOOOOOOOOOOOOOOOOOOOOOOOOOOOOOOOOOO",
"OOOOOOOOOOOOOOOOOOOOOOOOOOOOOOOOOOOOOOOOOOOOOOOO",
"OOOOOOOOOOOOOOOOOOOOOOOOOOOOOOOOOOOOOOOOOOOOOOOO",
"OOOOOOOOOOOOOOOOOOOOXXXXXXXXOOOOOOOOOOOOOOOOOOOO",
"OOOOOOOOOOOOOOOOOXXXX ..X..XXXXOOOOOOOOOOOOOOOOO",
"OOOOOOOOOOOOOOOOXX   .........XXOOOOOOOOOOOOOOOO",
"OOOOOOOOOOOOOOXXX .............XXXOOOOOOOOOOOOOO",
"OOOOOOOOOOOOOXX   ...............XXOOOOOOOOOOOOO",
"OOOOOOOOOOOOXX  ..................XXOOOOOOOOOOOO",
"OOOOOOOOOOOOX  ....................XOOOOOOOOOOOO",
"OOOOOOOOOOOXX  ....................XXOOOOOOOOOOO",
"OOOOOOOOOOXX  ......................XXOOOOOOOOOO",
"OOOOOOOOOOX   ...........oooo........XOOOOOOOOOO",
"OOOOOOOOOOX  ............oooo........XOOOOOOOOOO",
"OOOOOOOOOXX  .............oooo.......XXOOOOOOOOO",
"OOOOOOOOOX   ..............oooo.......XOOOOOOOOO",
"OOOOOOOOOX ................ooooo......XOOOOOOOOO",
"OOOOOOOOOX  ................oooo......XOOOOOOOOO",
"OOOOOOOOOX  ................oooo......XOOOOOOOOO",
"OOOOOOOOOX  ................oooo......XOOOOOOOOO",
"OOOOOOOOOX  ................oooo......XOOOOOOOOO",
"OOOOOOOOOX   ...............oooo......XOOOOOOOOO",
"OOOOOOOOOXX  ...............oooo.....XXOOOOOOOOO",
"OOOOOOOOOOX  ...............ooo......XOOOOOOOOOO",
"OOOOOOOOOOX   .............oooo......XOOOOOOOOOO",
"OOOOOOOOOOXX  .............ooo......XXOOOOOOOOOO",
"OOOOOOOOOOOXX   ..........ooo......XXOOOOOOOOOOO",
"OOOOOOOOOOOOX   ..........oo.......XOOOOOOOOOOOO",
"OOOOOOOOOOOOXX   .................XXOOOOOOOOOOOO",
"OOOOOOOOOOOOOXX   ...............XXOOOOOOOOOOOOO",
"OOOOOOOOOOOOOOXXX   ...........XXXOOOOOOOOOOOOOO",
"OOOOOOOOOOOOOOOOXX    ........XXOOOOOOOOOOOOOOOO",
"OOOOOOOOOOOOOOOOOXXXX   ...XXXXOOOOOOOOOOOOOOOOO",
"OOOOOOOOOOOOOOOOOOOOXXXXXXXXOOOOOOOOOOOOOOOOOOOO",
"OOOOOOOOOOOOOOOOOOOOOOOOOOOOOOOOOOOOOOOOOOOOOOOO",
"OOOOOOOOOOOOOOOOOOOOOOOOOOOOOOOOOOOOOOOOOOOOOOOO",
"OOOOOOOOOOOOOOOOOOOOOOOOOOOOOOOOOOOOOOOOOOOOOOOO",
"OOOOOOOOOOOOOOOOOOOOOOOOOOOOOOOOOOOOOOOOOOOOOOOO",
"OOOOOOOOOOOOOOOOOOOOOOOOOOOOOOOOOOOOOOOOOOOOOOOO",
"OOOOOOOOOOOOOOOOOOOOOOOOOOOOOOOOOOOOOOOOOOOOOOOO",
"OOOOOOOOOOOOOOOOOOOOOOOOOOOOOOOOOOOOOOOOOOOOOOOO",
"OOOOOOOOOOOOOOOOOOOOOOOOOOOOOOOOOOOOOOOOOOOOOOOO"
};
