/* XPM */
static char *result[] = {
/* columns rows colors chars-per-pixel */
"48 48 31 1 ",
"  c black",
". c #00060C",
"X c #00070D",
"o c #000A0A",
"O c #000D09",
"+ c #000E09",
"@ c #000C0D",
"# c #10A9CD",
"$ c #00AFD9",
"% c #00AEDB",
"& c #00AFDB",
"* c #00AEDE",
"= c #00AFDE",
"- c #00B6D5",
"; c #01B1D8",
": c #00B2DA",
"> c #00B3DB",
", c #1BF6E8",
"< c #1BF6E9",
"1 c #01FFFD",
"2 c cyan",
"3 c #01FFFF",
"4 c #02FEFE",
"5 c #03FFFE",
"6 c #06FCFF",
"7 c #07FCFF",
"8 c #16F6F6",
"9 c #17F6F6",
"0 c #1DF2F7",
"q c #18F5F5",
"w c None",
/* pixels */
"wwwwwwwwwwwwwwwwwwwwwwwwwwwwwwwwwwwwwwwwwwwwwwww",
"wwwwwwwwwwwwwwwwwwwwwwwwwwwwwwwwwwwwwwwwwwwwwwww",
"wwwwwwwwwwwwwwwwwwwwwwwwwwwwwwwwwwwwwwwwwwwwwwww",
"wwwwwwwwwwwwwwwwwwwwwwwwwwwwwwwwwwwwwwwwwwwwwwww",
"wwwwwwwwwwwwwwwwwwwwwwwwwwwwwwwwwwwwwwwwwwwwwwww",
"wwwwwwwwwwwwwwwwwwwwwwwwwwwwwwwwwwwwwwwwwwwwwwww",
"wwwwwwwwwwwwwwwwwwwwwwwwwwwwwwwwwwwwwwwwwwwwwwww",
"wwwwwwwwwwwwwwwwwwwwwwwwwwwwwwwwwwwwwwwwwwwwwwww",
"wwwwwwwwwwwwwwwwwwwwwwwwwwwwwwwwwwwwwwwwwwwwwwww",
"wwwwwwwwwwwwwwwwwwwwwwwwwwwwwwwwwwwwwwwwwwwwwwww",
"wwwwwwwwwwwwwwwwwwww@+++++O@wwwwwwwwwwwwwwwwwwww",
"wwwwwwwwwwwwwwwwwwoo22222222oowwwwwwwwwwwwwwwwww",
"wwwwwwwwwwwwwww <052wwwwwww2250, wwwwwwwwwwwwwww",
"wwwwwwwwwwwwwwq82w3wwwwwwwwww22wwwwwwwwwwwwwwwww",
"wwwwwwwwwwwww 42wwwwwwwwwwwwwwwwwwwwwwwwwwwwwwww",
"wwwwwwwwwwww022wwwwwwwwwwwwwwwwwwwwwwwwwwwwwwwww",
"wwwwwwwwwwww#62wwwwwwwwwwwwwwwwwwwwwwwwwwwwwwwww",
"wwwwwwwwwwww%62wwwwwwwwwwwwwwwwwwww0wwwwwwwwwwww",
"wwwwwwwwwww.%wwwwwwwwwwwwwwwwwwwwww5owwwwwwwwwww",
"wwwwwwwwwww.%wwwwwwwwwwwwwwwwwwwwww2owwwwwwwwwww",
"wwwwwwwwww@7%wwwwwwwwwwwwwwwwwwwwwww22wwwwwwwwww",
"wwwwwwwwwwX%%wwwwwwwwwwwwwwwwwwwwwww2+wwwwwwwwww",
"wwwwwwwwwwX%%%wwwwwwwwwwwwwwwwwwwwww2+wwwwwwwwww",
"wwwwwwwwwwX%%%wwwwwwwwwwwwwwwwwwwwww2+wwwwwwwwww",
"wwwwwwwwwwX%%%%wwwwwwwwwwwwwwwwwwwww2+wwwwwwwwww",
"wwwwwwwwwwX%%%%%wwwwwwwwwwwwwwwwwwww2+wwwwwwwwww",
"wwwwwwwwwwO6%%%%wwwwwwwwwwwwwwwwwwww2+wwwwwwwwww",
"wwwwwwwwww@7&%%%%wwwwwwwwwwwwwwwwwww2@wwwwwwwwww",
"wwwwwwwwwwwo;%%%%wwwwwwwwwwwwwwwwwwwowwwwwwwwwww",
"wwwwwwwwwwwo5:%%%%wwwwwwwwwwwwwwwwwwowwwwwwwwwww",
"wwwwwwwwwwww0:%%%%%wwwwwwwwwwwwwwww2wwwwwwwwwwww",
"wwwwwwwwwwww<>$%%%%%wwwwwwwwwwwwww2<wwwwwwwwwwww",
"wwwwwwwwwwww 9=%%%%%%wwwwwwwwwww228 wwwwwwwwwwww",
"wwwwwwwwwwwww 1**%%%%%wwwwwwwwww24 wwwwwwwwwwwww",
"wwwwwwwwwwwwww 82:%%%%%wwwwwwww28qwwwwwwwwwwwwww",
"wwwwwwwwwwwwwww <0-%%%%%%ww2250< wwwwwwwwwwwwwww",
"wwwwwwwwwwwwwwwwwwo.76666882oowwwwwwwwwwwwwwwwww",
"wwwwwwwwwwwwwwwwwwww@+++++O@wwwwwwwwwwwwwwwwwwww",
"wwwwwwwwwwwwwwwwwwwwwwwwwwwwwwwwwwwwwwwwwwwwwwww",
"wwwwwwwwwwwwwwwwwwwwwwwwwwwwwwwwwwwwwwwwwwwwwwww",
"wwwwwwwwwwwwwwwwwwwwwwwwwwwwwwwwwwwwwwwwwwwwwwww",
"wwwwwwwwwwwwwwwwwwwwwwwwwwwwwwwwwwwwwwwwwwwwwwww",
"wwwwwwwwwwwwwwwwwwwwwwwwwwwwwwwwwwwwwwwwwwwwwwww",
"wwwwwwwwwwwwwwwwwwwwwwwwwwwwwwwwwwwwwwwwwwwwwwww",
"wwwwwwwwwwwwwwwwwwwwwwwwwwwwwwwwwwwwwwwwwwwwwwww",
"wwwwwwwwwwwwwwwwwwwwwwwwwwwwwwwwwwwwwwwwwwwwwwww",
"wwwwwwwwwwwwwwwwwwwwwwwwwwwwwwwwwwwwwwwwwwwwwwww",
"wwwwwwwwwwwwwwwwwwwwwwwwwwwwwwwwwwwwwwwwwwwwwwww"
};
