/* XPM */
static char *result[] = {
/* columns rows colors chars-per-pixel */
"48 48 34 1 ",
"  c black",
". c #000A0A",
"X c #000D09",
"o c #000E09",
"O c #000C0D",
"+ c #00AFD9",
"@ c #01AFD9",
"# c #00AEDA",
"$ c #01AEDA",
"% c #00AEDB",
"& c #04ADD8",
"* c #01AFDD",
"= c #00AEDE",
"- c #00AFDE",
"; c #10A8D0",
": c #01B1D7",
"> c #00B6D5",
", c #01B1D8",
"< c #00B2DA",
"1 c #00B3DB",
"2 c #00B3DC",
"3 c #1BF6E8",
"4 c #1BF6E9",
"5 c #01FFFD",
"6 c #01FFFE",
"7 c cyan",
"8 c #02FEFE",
"9 c #03FFFE",
"0 c #06FCFF",
"q c #16F5F5",
"w c #16F6F6",
"e c #1DF2F7",
"r c #18F5F5",
"t c None",
/* pixels */
"tttttttttttttttttttttttttttttttttttttttttttttttt",
"tttttttttttttttttttttttttttttttttttttttttttttttt",
"tttttttttttttttttttttttttttttttttttttttttttttttt",
"tttttttttttttttttttttttttttttttttttttttttttttttt",
"tttttttttttttttttttttttttttttttttttttttttttttttt",
"tttttttttttttttttttttttttttttttttttttttttttttttt",
"tttttttttttttttttttttttttttttttttttttttttttttttt",
"tttttttttttttttttttttttttttttttttttttttttttttttt",
"tttttttttttttttttttttttttttttttttttttttttttttttt",
"tttttttttttttttttttttttttttttttttttttttttttttttt",
"ttttttttttttttttttttOoooooXOtttttttttttttttttttt",
"tttttttttttttttttt..77777777..tttttttttttttttttt",
"ttttttttttttttt 4e97ttttttt779e3 ttttttttttttttt",
"ttttttttttttttrw2<6tttttttttt77ttttttttttttttttt",
"ttttttttttttt 8=+%tttttttttttttttttttttttttttttt",
"tttttttttttte7-%%ttttttttttttttttttttttttttttttt",
"tttttttttttte1+%tttttttttttttttttttttttttttttttt",
"tttttttttttte<%%tttttttttttttttttttetttttttttttt",
"ttttttttttt.>%%%ttttttttttttttttttt9.ttttttttttt",
"ttttttttttt.,%%%ttttttttttttttttttt7.ttttttttttt",
"ttttttttttO7,%%%tttttttttttttttttttt77tttttttttt",
"ttttttttttX7t;%%tttttttttttttttttttt7otttttttttt",
"ttttttttttX7t;%%%ttttttttttttttttttt7otttttttttt",
"ttttttttttX7t;%%%%tttttttttttttttttt7otttttttttt",
"ttttttttttX7t;%%%%%ttttttttttttttttt7otttttttttt",
"ttttttttttX7ttt%%%%%tttttttttttttttt7otttttttttt",
"ttttttttttX77ttt@%%%%ttttttttttttttt7otttttttttt",
"ttttttttttO777tt$%%%%%tttttttttttttt7Otttttttttt",
"ttttttttttt.77ttt%%%%%%ttttttttttttt.ttttttttttt",
"ttttttttttt.97tttt*%%%%ttttttttttttt.ttttttttttt",
"tttttttttttte77tttt%%%%%ttttttttttt7tttttttttttt",
"tttttttttttt477ttttt#%%%%ttttttttt74tttttttttttt",
"tttttttttttt w77ttttt%%%%%%tttt%%7q tttttttttttt",
"ttttttttttttt 577ttttt@%%%%%%%%&78 ttttttttttttt",
"tttttttttttttt w77ttttt;;%%%%<<7wrtttttttttttttt",
"ttttttttttttttt 4e97ttttt%%::9e4 ttttttttttttttt",
"tttttttttttttttttt..77www007..tttttttttttttttttt",
"ttttttttttttttttttttOoooooXOtttttttttttttttttttt",
"tttttttttttttttttttttttttttttttttttttttttttttttt",
"tttttttttttttttttttttttttttttttttttttttttttttttt",
"tttttttttttttttttttttttttttttttttttttttttttttttt",
"tttttttttttttttttttttttttttttttttttttttttttttttt",
"tttttttttttttttttttttttttttttttttttttttttttttttt",
"tttttttttttttttttttttttttttttttttttttttttttttttt",
"tttttttttttttttttttttttttttttttttttttttttttttttt",
"tttttttttttttttttttttttttttttttttttttttttttttttt",
"tttttttttttttttttttttttttttttttttttttttttttttttt",
"tttttttttttttttttttttttttttttttttttttttttttttttt"
};
