/* XPM */
static char *result[] = {
/* columns rows colors chars-per-pixel */
"48 48 16 1 ",
"  c black",
". c #000A0A",
"X c #000D09",
"o c #000E09",
"O c #000C0D",
"+ c #1BF5E9",
"@ c #1BF6E9",
"# c #01FFFD",
"$ c cyan",
"% c #01FFFF",
"& c #02FEFE",
"* c #03FFFE",
"= c #16F6F6",
"- c #1DF2F7",
"; c #18F5F5",
": c None",
/* pixels */
"::::::::::::::::::::::::::::::::::::::::::::::::",
"::::::::::::::::::::::::::::::::::::::::::::::::",
"::::::::::::::::::::::::::::::::::::::::::::::::",
"::::::::::::::::::::::::::::::::::::::::::::::::",
"::::::::::::::::::::::::::::::::::::::::::::::::",
"::::::::::::::::::::::::::::::::::::::::::::::::",
"::::::::::::::::::::::::::::::::::::::::::::::::",
"::::::::::::::::::::::::::::::::::::::::::::::::",
"::::::::::::::::::::::::::::::::::::::::::::::::",
"::::::::::::::::::::::::::::::::::::::::::::::::",
"::::::::::::::::::::OoooooXO::::::::::::::::::::",
"::::::::::::::::::..$$$$$$$$..::::::::::::::::::",
"::::::::::::::: @-*$:::::::$$*-@ :::::::::::::::",
"::::::::::::::;=$:%::::::::::$$:::::::::::::::::",
"::::::::::::: &$::::::::::::::::::::::::::::::::",
"::::::::::::-$$:::::::::::::::::::::::::::::::::",
"::::::::::::-$$:::::::::::::::::::::::::::::::::",
"::::::::::::-$$::::::::::::::::::::-::::::::::::",
":::::::::::.*::::::::::::::::::::::*.:::::::::::",
":::::::::::.$::::::::::::::::::::::$.:::::::::::",
"::::::::::O$::::::::::::::::::::::::$$::::::::::",
"::::::::::X$::::::::::::::::::::::::$o::::::::::",
"::::::::::X$::::::::::::::::::::::::$o::::::::::",
"::::::::::X$::::::::::::::::::::::::$o::::::::::",
"::::::::::X$::::::::::::::::::::::::$o::::::::::",
"::::::::::X$::::::::::::::::::::::::$o::::::::::",
"::::::::::X$$:::::::::::::::::::::::$o::::::::::",
"::::::::::O$$$::::::::::::::::::::::$O::::::::::",
":::::::::::.$$::::::::::::::::::::::.:::::::::::",
":::::::::::.*$::::::::::::::::::::::.:::::::::::",
"::::::::::::-$$::::::::::::::::::::$::::::::::::",
"::::::::::::@$$:::::::::::::::::::$+::::::::::::",
":::::::::::: =$$::::::::::::::::$$= ::::::::::::",
"::::::::::::: #$$:::::::::::::::$& :::::::::::::",
":::::::::::::: =$$:::::::::::::$=;::::::::::::::",
"::::::::::::::: @-*$:::::::$$*-@ :::::::::::::::",
"::::::::::::::::::..$$=====$..::::::::::::::::::",
"::::::::::::::::::::OoooooXO::::::::::::::::::::",
"::::::::::::::::::::::::::::::::::::::::::::::::",
"::::::::::::::::::::::::::::::::::::::::::::::::",
"::::::::::::::::::::::::::::::::::::::::::::::::",
"::::::::::::::::::::::::::::::::::::::::::::::::",
"::::::::::::::::::::::::::::::::::::::::::::::::",
"::::::::::::::::::::::::::::::::::::::::::::::::",
"::::::::::::::::::::::::::::::::::::::::::::::::",
"::::::::::::::::::::::::::::::::::::::::::::::::",
"::::::::::::::::::::::::::::::::::::::::::::::::",
"::::::::::::::::::::::::::::::::::::::::::::::::"
};
