/* XPM */
static char *result[] = {
/* columns rows colors chars-per-pixel */
"48 48 36 1 ",
"  c black",
". c #00060C",
"X c #00070D",
"o c #00070E",
"O c #000A0A",
"+ c #000D09",
"@ c #000E09",
"# c #000C0D",
"$ c #010610",
"% c #13A9C4",
"& c #12A9C5",
"* c #12A7CE",
"= c #10A8CE",
"- c #00AED9",
"; c #00AFD9",
": c #01AFD9",
"> c #02ADDA",
", c #00AEDA",
"< c #00AEDB",
"1 c #04ACDB",
"2 c #01ADDD",
"3 c #00AEDC",
"4 c #10A8D0",
"5 c #01B1D7",
"6 c #1BF6E9",
"7 c #01FFFD",
"8 c cyan",
"9 c #01FFFF",
"0 c #02FEFE",
"q c #03FFFE",
"w c #06FCFF",
"e c #07FCFF",
"r c #16F6F6",
"t c #1DF2F7",
"y c #18F5F5",
"u c None",
/* pixels */
"uuuuuuuuuuuuuuuuuuuuuuuuuuuuuuuuuuuuuuuuuuuuuuuu",
"uuuuuuuuuuuuuuuuuuuuuuuuuuuuuuuuuuuuuuuuuuuuuuuu",
"uuuuuuuuuuuuuuuuuuuuuuuuuuuuuuuuuuuuuuuuuuuuuuuu",
"uuuuuuuuuuuuuuuuuuuuuuuuuuuuuuuuuuuuuuuuuuuuuuuu",
"uuuuuuuuuuuuuuuuuuuuuuuuuuuuuuuuuuuuuuuuuuuuuuuu",
"uuuuuuuuuuuuuuuuuuuuuuuuuuuuuuuuuuuuuuuuuuuuuuuu",
"uuuuuuuuuuuuuuuuuuuuuuuuuuuuuuuuuuuuuuuuuuuuuuuu",
"uuuuuuuuuuuuuuuuuuuuuuuuuuuuuuuuuuuuuuuuuuuuuuuu",
"uuuuuuuuuuuuuuuuuuuuuuuuuuuuuuuuuuuuuuuuuuuuuuuu",
"uuuuuuuuuuuuuuuuuuuuuuuuuuuuuuuuuuuuuuuuuuuuuuuu",
"uuuuuuuuuuuuuuuuuuuu#@@@@XX$uuuuuuuuuuuuuuuuuuuu",
"uuuuuuuuuuuuuuuuuuOO88www<<3..uuuuuuuuuuuuuuuuuu",
"uuuuuuuuuuuuuuu 6tq8uu<<<<<<<<<& uuuuuuuuuuuuuuu",
"uuuuuuuuuuuuuuyr8u9uuuuu<<<<<u<<4uuuuuuuuuuuuuuu",
"uuuuuuuuuuuuu 08uuuuuuuuuu<<<uu<<;=uuuuuuuuuuuuu",
"uuuuuuuuuuuut88uuuuuuuuuuuu<<2uu<<4uuuuuuuuuuuuu",
"uuuuuuuuuuuut88uuuuuuuuuuuuu<>:uu<<%uuuuuuuuuuuu",
"uuuuuuuuuuuut88uuuuuuuuuuuuuu<<-uu<*uuuuuuuuuuuu",
"uuuuuuuuuuuOquuuuuuuuuuuuuuuuu<>2uu1.uuuuuuuuuuu",
"uuuuuuuuuuuO8uuuuuuuuuuuuuuuuuu<<-u<.uuuuuuuuuuu",
"uuuuuuuuuu#8uuuuuuuuuuuuuuuuuuuu<,3<e8uuuuuuuuuu",
"uuuuuuuuuu+8uuuuuuuuuuuuuuuuuuuuu<<<w@uuuuuuuuuu",
"uuuuuuuuuu+8uuuuuuuuuuuuuuuuuuuuu<<<w@uuuuuuuuuu",
"uuuuuuuuuu+8uuuuuuuuuuuuuuuuuuuuuu<<<ouuuuuuuuuu",
"uuuuuuuuuu+8uuuuuuuuuuuuuuuuuuuuuu<<<ouuuuuuuuuu",
"uuuuuuuuuu+8uuuuuuuuuuuuuuuuuuuuuu<<<ouuuuuuuuuu",
"uuuuuuuuuu+88uuuuuuuuuuuuuuuuuuuuuu<<ouuuuuuuuuu",
"uuuuuuuuuu#888uuuuuuuuuuuuuuuuuuuuu<e#uuuuuuuuuu",
"uuuuuuuuuuuO88uuuuuuuuuuuuuuuuuuuuu5Ouuuuuuuuuuu",
"uuuuuuuuuuuOq8uuuuuuuuuuuuuuuuuuuuu5Ouuuuuuuuuuu",
"uuuuuuuuuuuut88uuuuuuuuuuuuuuuuuuu<5uuuuuuuuuuuu",
"uuuuuuuuuuuu688uuuuuuuuuuuuuuuuuuu86uuuuuuuuuuuu",
"uuuuuuuuuuuu r88uuuuuuuuuuuuuuuu88r uuuuuuuuuuuu",
"uuuuuuuuuuuuu 788uuuuuuuuuuuuuuu80 uuuuuuuuuuuuu",
"uuuuuuuuuuuuuu r88uuuuuuuuuuuuu8ryuuuuuuuuuuuuuu",
"uuuuuuuuuuuuuuu 6tq8uuuuuuu88qt6 uuuuuuuuuuuuuuu",
"uuuuuuuuuuuuuuuuuuOO88rrrrr8OOuuuuuuuuuuuuuuuuuu",
"uuuuuuuuuuuuuuuuuuuu#@@@@@+#uuuuuuuuuuuuuuuuuuuu",
"uuuuuuuuuuuuuuuuuuuuuuuuuuuuuuuuuuuuuuuuuuuuuuuu",
"uuuuuuuuuuuuuuuuuuuuuuuuuuuuuuuuuuuuuuuuuuuuuuuu",
"uuuuuuuuuuuuuuuuuuuuuuuuuuuuuuuuuuuuuuuuuuuuuuuu",
"uuuuuuuuuuuuuuuuuuuuuuuuuuuuuuuuuuuuuuuuuuuuuuuu",
"uuuuuuuuuuuuuuuuuuuuuuuuuuuuuuuuuuuuuuuuuuuuuuuu",
"uuuuuuuuuuuuuuuuuuuuuuuuuuuuuuuuuuuuuuuuuuuuuuuu",
"uuuuuuuuuuuuuuuuuuuuuuuuuuuuuuuuuuuuuuuuuuuuuuuu",
"uuuuuuuuuuuuuuuuuuuuuuuuuuuuuuuuuuuuuuuuuuuuuuuu",
"uuuuuuuuuuuuuuuuuuuuuuuuuuuuuuuuuuuuuuuuuuuuuuuu",
"uuuuuuuuuuuuuuuuuuuuuuuuuuuuuuuuuuuuuuuuuuuuuuuu"
};
