/* XPM */
static char *result[] = {
/* columns rows colors chars-per-pixel */
"48 48 32 1 ",
"  c black",
". c #000A0A",
"X c #000D09",
"o c #000E09",
"O c #000C0D",
"+ c #00AED9",
"@ c #00AFD9",
"# c #01AFD9",
"$ c #02ADDA",
"% c #00AEDB",
"& c #04ADD8",
"* c #01ADDD",
"= c #00AEDC",
"- c #00AEDE",
"; c #00AFDE",
": c #00AEDF",
"> c #01B1D7",
", c #01B1DB",
"< c #04AAE3",
"1 c #1BF6E8",
"2 c #1BF6E9",
"3 c #1BF7E9",
"4 c #01FFFD",
"5 c cyan",
"6 c #02FEFE",
"7 c #03FFFE",
"8 c #16F6F6",
"9 c #1DF2F7",
"0 c #18F5F5",
"q c #E3FFFF",
"w c #FDFFFB",
"e c None",
/* pixels */
"eeeeeeeeeeeeeeeeeeeeeeeeeeeeeeeeeeeeeeeeeeeeeeee",
"eeeeeeeeeeeeeeeeeeeeeeeeeeeeeeeeeeeeeeeeeeeeeeee",
"eeeeeeeeeeeeeeeeeeeeeeeeeeeeeeeeeeeeeeeeeeeeeeee",
"eeeeeeeeeeeeeeeeeeeeeeeeeeeeeeeeeeeeeeeeeeeeeeee",
"eeeeeeeeeeeeeeeeeeeeeeeeeeeeeeeeeeeeeeeeeeeeeeee",
"eeeeeeeeeeeeeeeeeeeeeeeeeeeeeeeeeeeeeeeeeeeeeeee",
"eeeeeeeeeeeeeeeeeeeeeeeeeeeeeeeeeeeeeeeeeeeeeeee",
"eeeeeeeeeeeeeeeeeeeeeeeeeeeeeeeeeeeeeeeeeeeeeeee",
"eeeeeeeeeeeeeeeeeeeeeeeeeeeeeeeeeeeeeeeeeeeeeeee",
"eeeeeeeeeeeeeeeeeeeeeeeeeeeeeeeeeeeeeeeeeeeeeeee",
"eeeeeeeeeeeeeeeeeeeeOoooooXOeeeeeeeeeeeeeeeeeeee",
"eeeeeeeeeeeeeeeeee..55555555..eeeeeeeeeeeeeeeeee",
"eeeeeeeeeeeeeee 297>>eeeeee55791 eeeeeeeeeeeeeee",
"eeeeeeeeeeeeee085e,%%eeeeeeee55eeeeeeeeeeeeeeeee",
"eeeeeeeeeeeee 65e#$%%@eeeeeeeeeeeeeeeeeeeeeeeeee",
"eeeeeeeeeeee955ee%%%%%eeeeeeeeeeeeeeeeeeeeeeeeee",
"eeeeeeeeeeee955e<%%%%%eeeeeeeeeeeeeeeeeeeeeeeeee",
"eeeeeeeeeeee955e#%%%%%%eeeeeeeeeeee9eeeeeeeeeeee",
"eeeeeeeeeee.7eee#%%%%%%eeeeeeeeeeee7.eeeeeeeeeee",
"eeeeeeeeeee.5eee#%%%%%%eeeeeeeeeeee5.eeeeeeeeeee",
"eeeeeeeeeeO5qeee#%%%%%%eeeeeeeeeeeee55eeeeeeeeee",
"eeeeeeeeeeX5eeeee%%%%%%%eeeeeeeeeeee5oeeeeeeeeee",
"eeeeeeeeeeX5eeeeee*%%%%%%eeeeeeeeeee5oeeeeeeeeee",
"eeeeeeeeeeX5eeeeee*%%%%%%%eeeeeeeeee5oeeeeeeeeee",
"eeeeeeeeeeX5eeeeeeee=%%%%%%eeeeeeeee5oeeeeeeeeee",
"eeeeeeeeeeX5eeeeeeeee%%%%%%eeeeeeeee5oeeeeeeeeee",
"eeeeeeeeeeX55eeeeeeeee%%%%%=eeeeeeee5oeeeeeeeeee",
"eeeeeeeeeeO555eeeeeeee==%%%%%eeeeeee5Oeeeeeeeeee",
"eeeeeeeeeee.55eeeeeeeeee%%%%%*eeeeee.eeeeeeeeeee",
"eeeeeeeeeee.75weeeeeeeeee*%%%:eeeeee.eeeeeeeeeee",
"eeeeeeeeeeee955eeeeeeeeeee%%%%%%%+e5eeeeeeeeeeee",
"eeeeeeeeeeee255eeeeeeeeeeee-%%%@;&53eeeeeeeeeeee",
"eeeeeeeeeeee 855eeeeeeeeeeee%%%;558 eeeeeeeeeeee",
"eeeeeeeeeeeee 455eeeeeeeeeeee##&56 eeeeeeeeeeeee",
"eeeeeeeeeeeeee 855eeeeeeeeeeeee580eeeeeeeeeeeeee",
"eeeeeeeeeeeeeee 2975eeeeeee55792 eeeeeeeeeeeeeee",
"eeeeeeeeeeeeeeeeee..55888885..eeeeeeeeeeeeeeeeee",
"eeeeeeeeeeeeeeeeeeeeOoooooXOeeeeeeeeeeeeeeeeeeee",
"eeeeeeeeeeeeeeeeeeeeeeeeeeeeeeeeeeeeeeeeeeeeeeee",
"eeeeeeeeeeeeeeeeeeeeeeeeeeeeeeeeeeeeeeeeeeeeeeee",
"eeeeeeeeeeeeeeeeeeeeeeeeeeeeeeeeeeeeeeeeeeeeeeee",
"eeeeeeeeeeeeeeeeeeeeeeeeeeeeeeeeeeeeeeeeeeeeeeee",
"eeeeeeeeeeeeeeeeeeeeeeeeeeeeeeeeeeeeeeeeeeeeeeee",
"eeeeeeeeeeeeeeeeeeeeeeeeeeeeeeeeeeeeeeeeeeeeeeee",
"eeeeeeeeeeeeeeeeeeeeeeeeeeeeeeeeeeeeeeeeeeeeeeee",
"eeeeeeeeeeeeeeeeeeeeeeeeeeeeeeeeeeeeeeeeeeeeeeee",
"eeeeeeeeeeeeeeeeeeeeeeeeeeeeeeeeeeeeeeeeeeeeeeee",
"eeeeeeeeeeeeeeeeeeeeeeeeeeeeeeeeeeeeeeeeeeeeeeee"
};
