/* XPM */
static char *result[] = {
/* columns rows colors chars-per-pixel */
"48 48 30 1 ",
"  c black",
". c #000A0A",
"X c #000D09",
"o c #000E09",
"O c #000C0D",
"+ c #00AED9",
"@ c #00AFD9",
"# c #01AFD9",
"$ c #00AEDA",
"% c #00AEDB",
"& c #00AFDB",
"* c #04ADD8",
"= c #01ADDD",
"- c #00AEDC",
"; c #01AFDD",
": c #00AFDE",
"> c #10A8D0",
", c #01B1D7",
"< c #00B6D6",
"1 c #00B2DA",
"2 c #1BF6E9",
"3 c #01FFFD",
"4 c cyan",
"5 c #02FEFE",
"6 c #03FFFE",
"7 c #07FCFF",
"8 c #16F6F6",
"9 c #1DF2F7",
"0 c #18F5F5",
"q c None",
/* pixels */
"qqqqqqqqqqqqqqqqqqqqqqqqqqqqqqqqqqqqqqqqqqqqqqqq",
"qqqqqqqqqqqqqqqqqqqqqqqqqqqqqqqqqqqqqqqqqqqqqqqq",
"qqqqqqqqqqqqqqqqqqqqqqqqqqqqqqqqqqqqqqqqqqqqqqqq",
"qqqqqqqqqqqqqqqqqqqqqqqqqqqqqqqqqqqqqqqqqqqqqqqq",
"qqqqqqqqqqqqqqqqqqqqqqqqqqqqqqqqqqqqqqqqqqqqqqqq",
"qqqqqqqqqqqqqqqqqqqqqqqqqqqqqqqqqqqqqqqqqqqqqqqq",
"qqqqqqqqqqqqqqqqqqqqqqqqqqqqqqqqqqqqqqqqqqqqqqqq",
"qqqqqqqqqqqqqqqqqqqqqqqqqqqqqqqqqqqqqqqqqqqqqqqq",
"qqqqqqqqqqqqqqqqqqqqqqqqqqqqqqqqqqqqqqqqqqqqqqqq",
"qqqqqqqqqqqqqqqqqqqqqqqqqqqqqqqqqqqqqqqqqqqqqqqq",
"qqqqqqqqqqqqqqqqqqqqOoooooXOqqqqqqqqqqqqqqqqqqqq",
"qqqqqqqqqqqqqqqqqq..74444444..qqqqqqqqqqqqqqqqqq",
"qqqqqqqqqqqqqqq 296,&,,,,qq44692 qqqqqqqqqqqqqqq",
"qqqqqqqqqqqqqq08411%%%%%%qqqq44qqqqqqqqqqqqqqqqq",
"qqqqqqqqqqqqq 54*%%%%%%%%#qqqqqqqqqqqqqqqqqqqqqq",
"qqqqqqqqqqqq944q#%%%%%%%%%%qqqqqqqqqqqqqqqqqqqqq",
"qqqqqqqqqqqq944qqqqq+%%%%%%$qqqqqqqqqqqqqqqqqqqq",
"qqqqqqqqqqqq944qqqqqqq%%%%%-qqqqqqq9qqqqqqqqqqqq",
"qqqqqqqqqqq.6qqqqqqqqqq%%%%+=;qqqqq6.qqqqqqqqqqq",
"qqqqqqqqqqq.4qqqqqqqqqqq%%%%%%%qqqq4.qqqqqqqqqqq",
"qqqqqqqqqqO4qqqqqqqqqqqq%%%%%%%$qqqq44qqqqqqqqqq",
"qqqqqqqqqqX4qqqqqqqqqqqqq%%%%%%%%qqq4oqqqqqqqqqq",
"qqqqqqqqqqX4qqqqqqqqqqqqqq%%%%%%%+qq4oqqqqqqqqqq",
"qqqqqqqqqqX4qqqqqqqqqqqqqq%%%%%%%%>q4oqqqqqqqqqq",
"qqqqqqqqqqX4qqqqqqqqqqqqqqq%%%%%%%>q4oqqqqqqqqqq",
"qqqqqqqqqqX4qqqqqqqqqqqqqqqq%%%%%%%,4oqqqqqqqqqq",
"qqqqqqqqqqX44qqqqqqqqqqqqqqqq%%%%%%,4oqqqqqqqqqq",
"qqqqqqqqqqO444qqqqqqqqqqqqqqqq%%%%%,4Oqqqqqqqqqq",
"qqqqqqqqqqq.44qqqqqqqqqqqqqqqq%%%%%,.qqqqqqqqqqq",
"qqqqqqqqqqq.64qqqqqqqqqqqqqqqqq%%%%<.qqqqqqqqqqq",
"qqqqqqqqqqqq944qqqqqqqqqqqqqqqq%%%14qqqqqqqqqqqq",
"qqqqqqqqqqqq244qqqqqqqqqqqqqqqq@:*42qqqqqqqqqqqq",
"qqqqqqqqqqqq 844qqqqqqqqqqqqqq%:448 qqqqqqqqqqqq",
"qqqqqqqqqqqqq 344qqqqqqqqqqqqq%*45 qqqqqqqqqqqqq",
"qqqqqqqqqqqqqq 844qqqqqqqqqqqq1480qqqqqqqqqqqqqq",
"qqqqqqqqqqqqqqq 2964qqqqqqq44692 qqqqqqqqqqqqqqq",
"qqqqqqqqqqqqqqqqqq..44888884..qqqqqqqqqqqqqqqqqq",
"qqqqqqqqqqqqqqqqqqqqOoooooXOqqqqqqqqqqqqqqqqqqqq",
"qqqqqqqqqqqqqqqqqqqqqqqqqqqqqqqqqqqqqqqqqqqqqqqq",
"qqqqqqqqqqqqqqqqqqqqqqqqqqqqqqqqqqqqqqqqqqqqqqqq",
"qqqqqqqqqqqqqqqqqqqqqqqqqqqqqqqqqqqqqqqqqqqqqqqq",
"qqqqqqqqqqqqqqqqqqqqqqqqqqqqqqqqqqqqqqqqqqqqqqqq",
"qqqqqqqqqqqqqqqqqqqqqqqqqqqqqqqqqqqqqqqqqqqqqqqq",
"qqqqqqqqqqqqqqqqqqqqqqqqqqqqqqqqqqqqqqqqqqqqqqqq",
"qqqqqqqqqqqqqqqqqqqqqqqqqqqqqqqqqqqqqqqqqqqqqqqq",
"qqqqqqqqqqqqqqqqqqqqqqqqqqqqqqqqqqqqqqqqqqqqqqqq",
"qqqqqqqqqqqqqqqqqqqqqqqqqqqqqqqqqqqqqqqqqqqqqqqq",
"qqqqqqqqqqqqqqqqqqqqqqqqqqqqqqqqqqqqqqqqqqqqqqqq"
};
