/* XPM */
static char *result[] = {
/* columns rows colors chars-per-pixel */
"48 48 123 2 ",
"   c #000100",
".  c #090200",
"X  c #010A01",
"o  c #090806",
"O  c gray3",
"+  c #140E00",
"@  c #001200",
"#  c #001B00",
"$  c #151516",
"%  c #1D1D1D",
"&  c #042504",
"*  c #012902",
"=  c #062408",
"-  c #0D200D",
";  c #0F2E0F",
":  c #142501",
">  c #172F17",
",  c #1A2D19",
"<  c #0F3510",
"1  c #123313",
"2  c #183217",
"3  c #1C341C",
"4  c #193C1B",
"5  c #2C391D",
"6  c #2C2C2C",
"7  c #312C28",
"8  c #4F3A0D",
"9  c #50390D",
"0  c #463615",
"q  c #483515",
"w  c #4D3915",
"e  c #44341B",
"r  c #49381A",
"t  c #154B16",
"y  c #174419",
"u  c #1B441C",
"i  c #174918",
"p  c #184818",
"a  c #135315",
"s  c #165719",
"d  c #165B1A",
"f  c #1B5B1D",
"g  c #254104",
"h  c #19601B",
"j  c #1E4220",
"k  c #1E5B20",
"l  c #3A4838",
"z  c #1F6821",
"x  c #2A6E2C",
"c  c #37773B",
"v  c #39763B",
"b  c #3B783C",
"n  c #574014",
"m  c #574118",
"M  c #5B4B2B",
"N  c #6C572A",
"B  c #725B2F",
"V  c #6E5A37",
"C  c #556B3D",
"Z  c gray28",
"A  c #4A4A4A",
"S  c #4B544D",
"D  c #585858",
"F  c #427145",
"G  c #587559",
"H  c #3B843C",
"J  c #398A3D",
"K  c #429138",
"L  c #64893B",
"P  c #3D8E41",
"I  c #498E4D",
"U  c #429246",
"Y  c #4A954D",
"T  c #469B49",
"R  c #4A994C",
"E  c #4C8550",
"W  c #4F8853",
"Q  c #549D56",
"!  c #579E5A",
"~  c #5A9B5C",
"^  c #739D55",
"/  c #789954",
"(  c #4CA34E",
")  c #4BAF4F",
"_  c #56AD46",
"`  c #5AAD45",
"'  c #5EA44C",
"]  c #53AD4B",
"[  c #59AF4A",
"{  c #4CB04E",
"}  c #56B04C",
"|  c #4FA751",
" . c #4EAD52",
".. c #51A554",
"X. c #57AA50",
"o. c #55A35A",
"O. c #4CB050",
"+. c #5DB551",
"@. c #7DA54F",
"#. c #64B54C",
"$. c #77BC4F",
"%. c #6CBD54",
"&. c #71B46D",
"*. c #70B574",
"=. c #79B27D",
"-. c #7FC04C",
";. c #6DC25A",
":. c #76C255",
">. c #7CC353",
",. c #73C259",
"<. c #8DBC55",
"1. c #8CB65C",
"2. c #8DB95A",
"3. c #8BB062",
"4. c #8AC247",
"5. c #87C34C",
"6. c #8AC149",
"7. c #80C452",
"8. c #9DC86C",
"9. c #A7C682",
"0. c #E2FAC6",
"q. c #FDFEFD",
"w. c None",
/* pixels */
"w.w.w.w.w.w.w.w.w.w.w.w.w.w.w.w.w.w.w.w.w.w.w.w.w.w.w.w.w.w.w.w.w.w.w.w.w.w.w.w.w.w.w.w.w.w.w.w.",
"w.w.w.w.w.w.w.w.w.w.w.w.w.w.w.w.w.w.w.w.w.w.w.w.w.w.w.w.w.w.w.w.w.w.w.w.w.w.w.w.w.w.w.w.w.w.w.w.",
"w.w.w.w.w.w.w.w.w.w.w.w.w.w.w.w.w.w.w.w.w.      w.w.          w.w.w.w.w.w.w.w.w.w.w.w.w.w.w.w.w.",
"w.w.w.w.w.w.w.w.w.w.w.w.w.w.w.w.X w.w.w.w.      O X o.' <.<.2.  . X w.w.  O   6 w.w.w.w.w.w.w.w.",
"w.w.w.w.w.w.w.w.w.w.w.w.w.w.w.w.  w.w.w.w.          ) ` 6.6.6.      w.w.      % w.w.w.w.w.w.w.w.",
"w.w.w.w.w.w.w.w.w.w.D   w.w.  X i X     #  .) ) ) ) 6.4.6.6.6.6.6.4.:   6.<.  % w.w.w.w.w.w.w.w.",
"w.w.w.w.w.w.w.w.w.w.S X w.w.& * f * = @ & ) ) ) ) ) >.-.6.6.6.6.6.6.g : 6.<.& 5 w.w.w.w.w.w.w.w.",
"w.w.w.w.w.w.w.w.w.  ; i   X ) )  .) ) p a ) ) ) ) )  .` 6.6.6.6.6.6.6.6.6.4.4.@.  w.w.w.w.w.w.w.",
"w.w.w.w.w.w.w.  X t J { ) ) ) _ 4.] ) ) | i P ) 6.6.6.>.O.5.6.6.4.4.4.4.<.4.4.4.<.X   w.w.w.w.w.",
"w.w.w.w.w.w.w.X X t J { ) ) _ ` 6.` ) { ( s P ) 5.6.4.>.] 5.6.6.<.4.4.4.4.4.4.<.4.@ X w.w.w.w.w.",
"w.w.w.w.w.O   i a { {  .) { 6.6.6.6.6.{  .{ ) ) 5.<.4.4.6.5.6.6.4.4.4.4.4.4.4.4.4.<.4.  A w.w.w.",
"w.w.w.w.w.O   i i i J { 6.6.6.6.6.6.4.6.>.) ) ) ) ] 4.>.)  .} 6.4.4.<.4.4.<.4.4.4.4.<.  A w.w.w.",
"w.w.w.w.w.O   i i i J ) 6.6.6.6.6.6.6.6.-.{ O.) { ) 6.>.{ { ) 6.4.4.4.4.<.4.6.6.4.<.4.  Z w.w.w.",
"w.w.w.w.w.O   i a ) { { 6.6.6.6.6.6.6.6.>.{ {  .6.5.O. .)  .) 6.4.4.<.4.4.6.6.6.4.4.<.  A w.w.w.",
"w.w.w.w.A > 1 P J $.+.{ 6.6.6.6.6.6.4.6.>.{ ) ) 5.6.$.%.) ) ) 4.4.<.4.4.4.4.6.6.6.6.4.  A w.w.w.",
"w.w.w.w.  u t ) ` 4.#.{ 6.6.6.6.6.6.6.6.>.) )  .5.6.6.>.) ) ) 4.4.4.4.<.4.4.6.6.6.4.6.  Z w.w.w.",
"w.w.w.w.  u t ) ) ) ) ) 6.6.6.6.6.4.<.{ ) ) ) ) 6.6.6.>.{ 7.6.6.6.6.6.6.6.4.4.4.4.<.4.4.L   w.w.",
"w.w.w.w.@ f f R T ) ) ) :.:.:.:.:.:.-.E W =.~ R :.:.,.;.{ ^ / 9.8.6.6.6.:.:.<.4.4.4.4./ C   w.w.",
"w.w.  X y X.) t a )  .) O.{  . .{ { {   $ q.G t  .) ) ) ) X   q.0.6.6.6.) ] <.4.4.<.<.      w.w.",
"w.w.  X i i t i t a J O.t t p a O.X     $ q.q.q. . .) ~       q.w.w.&.) ) [ 4.4.<.X X   Z w.w.w.",
"w.w.  X i i i i y i J  .i i i a { X     $ q.q.q.X.) ) ~       w.w.w.*. .) ) 5.6.4.X     Z w.w.w.",
"w.w.  X i i i i t t i i i i i a ) X              .) 6.3.            I ) ) ) ) ) ) X   w.w.w.w.w.",
"w.w.w.w.X u i i i i H ......i t a y j       , u  .) _ X.!       & o. .) ) ) ) } -.1.1.o O O w.w.",
"w.w.w.w.  u i i i i J  .)  .i p i i i       2 i  .) {  .) X     * )  . .) ) ) [ 6.6.<.      w.w.",
"w.w.  X p y p p i i i i i i p i i i i  . .O.z i  .)  ...t  .) <.:.) >.6.) ) ) ) ) ) { { b   w.w.",
"w.w.O X j u u p i i i i i i i i a t i |  .O.z i ..| ..Q i  .) 5.;.{ :.>.) ) )  . .) ) ! F O w.w.",
"w.w.w.w.      p i i i i i i i a ) t i i s ) z i i i i i y ) ) )  .{ { O.) ) ) ) { {  .  A w.w.w.",
"w.w.w.w.w.O   p a  .x i i i i i t t i i t t t i i i  ...t t t t t t T O.t t t d ) t i y 1   w.w.",
"w.w.w.w.w.O   t a { x t i i i i i i i i p t p i i i ) ..t t t t t t R  .p y t f O.t t i 1   w.w.",
"w.w.w.w.  u i i a { x t i i i i i i i i i i p i i i ) ) ) t t ) { { f t i y t i i i i i 1   w.w.",
"w.w.w.w.  u i @ # f H Y R R Y Y i i i i i i i p i t h h h t y f h h t i i i i i i i i @ l w.w.w.",
"w.w.w.w.  u y   X y J ) ) )  .| i i i i i i i p t p p p p i i t i i i i i i i i i i i   A w.w.w.",
"w.w.w.w.w.O   w.w.  < t ) ) ) ) O.t i t i i i i i i i i i i i i i t i i i i i 4       w.w.w.w.w.",
"w.w.w.w.w.S A w.w.  $ 1 c c v v v t i 1 < i i i i i p t i i i 1 1 1 y i 1 1 1 3 A A A w.w.w.w.w.",
"w.w.w.w.w.w.w.w.w.                u i   X i i i i i i i t i y       4 i       % w.w.w.w.w.w.w.w.",
"w.w.w.w.w.w.w.w.w.w.w.w.    w.w.      9 0   2 i     i i p     9 9 B +   w.w.w.w.w.w.w.w.w.w.w.w.",
"w.w.w.w.w.w.w.w.w.w.w.w.    w.w.      9 0   2 i     p i p X   9 m B +   w.w.w.w.w.w.w.w.w.w.w.w.",
"w.w.w.w.w.w.w.w.w.w.w.w.w.w.w.w.  V B 9 0       w.w.          9 m B +   w.w.w.w.w.w.w.w.w.w.w.w.",
"w.w.w.w.w.w.w.w.w.w.w.w.w.w.w.w.  V B 8 0   w.w.w.w.w.w.w.O   9 n B +   w.w.w.w.w.w.w.w.w.w.w.w.",
"w.w.w.w.w.w.w.w.w.w.w.w.w.w.w.w.  V B 9 0   w.w.w.w.w.w.w.    8 n B +   w.w.w.w.w.w.w.w.w.w.w.w.",
"w.w.w.w.w.w.w.w.w.w.w.w.w.w.w.w.  V B 9 0   w.w.w.w.w.w.w.    9 m B +   w.w.w.w.w.w.w.w.w.w.w.w.",
"w.w.w.w.w.w.w.w.w.w.w.w.w.w.6 7 M m n 9 0   w.w.w.w.w.w.w..   9 9 9 M M 6 6 w.w.w.w.w.w.w.w.w.w.",
"w.w.w.w.w.w.w.w.w.w.w.w.w.w.  . B 9 9 9 0   w.w.w.w.w.w.w.O   9 9 9 N B   O w.w.w.w.w.w.w.w.w.w.",
"w.w.w.w.w.w.w.w.w.w.w.w.    9 9 9 8 9 9 0   w.w.w.w.w.w.w.    9 9 9 9 9 9 q   % w.w.w.w.w.w.w.w.",
"w.w.w.w.w.w.w.w.w.w.w.w.    w w w w w w e   w.w.w.w.w.w.w.    w w w w w w r   % w.w.w.w.w.w.w.w.",
"w.w.w.w.w.w.w.w.w.w.w.w.                    w.w.w.w.w.w.w..                   % w.w.w.w.w.w.w.w.",
"w.w.w.w.w.w.w.w.w.w.w.w.w.w.w.w.w.w.w.w.w.w.w.w.w.w.w.w.w.w.w.w.w.w.w.w.w.w.w.w.w.w.w.w.w.w.w.w.",
"w.w.w.w.w.w.w.w.w.w.w.w.w.w.w.w.w.w.w.w.w.w.w.w.w.w.w.w.w.w.w.w.w.w.w.w.w.w.w.w.w.w.w.w.w.w.w.w."
};
