/* XPM */
static char *result[] = {
/* columns rows colors chars-per-pixel */
"48 48 7 1 ",
"  c #142F57",
". c #163361",
"X c #1B3C75",
"o c #1F4488",
"O c #234D96",
"+ c #3366B8",
"@ c None",
/* pixels */
"@@@@@@@@@@@@@@@@@@@@@@@@@@@@@@@@@@@@@@@@@@@@@@@@",
"@@@@@@@@@@@oo@@@@@@oooooooo@@@@@@@@@@@@@@@@@@@@@",
"@@@@@@@@@@oooo@@@@@oooooooo@@@@@@@@@@@@@@@@@@@@@",
"@@@@@@@@@+++@@@ooooOOOOOOOOOOOOOOooooo@@@@@@@@@@",
"@@@@@@@@++++oooooOOOOOOOOOOOOOOOOooooooo@@@@@@@@",
"@@@@@@@++++OooooO++OOooooOOOO++OOOOOooooo@@@@@@@",
"@@@@@@@++OOoO+++++OooooXXXXOOOO++++o@@@oo@@@@@@@",
"@oo@@@o++ooO+++OOOooooooXXXXooOOOOOOo@@o@@@@@@@@",
"@oo@@@o++ooO+++oooooooooXXXXXoOooOOOoo@@@@@@@@@@",
"ooo@@@+++ooO+OooooXXXXXXoXXXXXXXXooOOoo@@@@@@@@@",
"ooo@@o+++ooO+OooooXXXXXXoXXXXXXXXooOOooo@@@@@@@@",
"ooo@oo+OOOOOoXXXXXXooooXXXXXXXXXXoooOOOoo@@@@@@@",
"oOO@oo+OOOOoXXXXXXoooXXXXXXXXXXXXXXoo++OOo@@@@@@",
"oOOoooOOOooXXXXXXooXXXXXXXXXXXXXXXXoo++OOO@@@@@@",
"oOOoooOOOooXXXXXXooXXXXXXXXXXXXXXXXoo++OOO@@@@@@",
"oOOooooOOooXXXXXXoXXX..XXXXXX....XXXoXX++OOO@@@@",
"oOOooooOOooXXXXXXoXXX..XXXXXX....XXXoXX++OOOo@@@",
"oOOOOoXoOXXoXXXXXXX..XX............XoXX+++Ooo@@@",
"o++OOoXoOXXooXXXXX..................oXXOO+Ooo@@@",
"o++OOoXooXXooXXXXX.....X.......XXXX.oXXOOOOoo@@@",
"@++OOoXooXXooXXXXX.....X.......XXXX.oXXOOOOoo@@@",
"@OO++oXooXXXoooXX......XX..........X.XXooOOoo@@@",
"@OO++oXooXXXoooXX......XX..........X.XXooOOooo@@",
"@OO++OXXXXXXoooXX......XX...........XXXooOOoooo@",
"@oo++OXXXXXXXooXXX......X...........XXXOOOOO@oo@",
"@oo+++oXXXXXXXXXXX.........  .......XooOO+OO@o@@",
"@oo+++oXXXXXXXXXXX.........  .......XooOO+OO@@@@",
"@@@oO+OooXXXXXX...X........      ...XoOOO+OO@@@@",
"@@@oO+OooXXXXXX...X........      ...XoOOO+OO@@@@",
"@@@@ooOooooXXXX..XX........    ..... oO++OOO@@@@",
"@@@@ooOOOooXXXXXX.XXX...............OOO++Ooo@@@@",
"@@@@@oooooooXXXXXX.................oO++OOOoXX@@@",
"@@@@@@ooooooXXXXXX................XoO++OOO@XX@@@",
"@@@@@@oOOXXooXXXXXX............ooooOO++OOo@@@@@@",
"@@@ooooOOXoooXXXXXX.......XXXXXooooOO++OOo@@@@@@",
"@@@ooo@ooOOOoooXXXXXX....ooooooooOOO+OOOOo@@@@@@",
"@@@@oooOO+++OoooooXXXXXXXXX..XoOOOO+++@ooo@@@@@@",
"@@@@@ooooOO++OOOOoooooooooooooOOO+++oo@ooo@@@@@@",
"@@@@@@oooOO++OOOOooooooooooooOOOO+++XX@oo@@@@@@@",
"@@@@@@@@@ooo+++++ooooOOOOOOOOOOOOOOoXoo@@@@@@@@@",
"@@@@@@@@@ooo+++++ooooOOOOOOOOOoOOOooXoo@@@@@@@@@",
"@@@@@@@@@@@@@@@@@@@oooooooooooXooooX@oo@@@@@@@@@",
"@@@@@@@@@@@@@@@oooooooo@XXXXXXoooXXX@@@@@@@@@@@@",
"@@@@@@@@@@@@@@@ooooooo@@XooooooXXXXX@@@@@@@@@@@@",
"@@@@@@@@@@@@@@@@@@@@@@@@@ooooo@XXXX@@@@@@@@@@@@@",
"@@@@@@@@@@@@@@@@@@@@@@@@@@@@@@@@@@@@@@@@@@@@@@@@",
"@@@@@@@@@@@@@@@@@@@@@@@@@@@@@@@@@@@@@@@@@@@@@@@@",
"@@@@@@@@@@@@@@@@@@@@@@@@@@@@@@@@@@@@@@@@@@@@@@@@"
};
