/* XPM */
static char *result[] = {
/* columns rows colors chars-per-pixel */
"48 48 7 1 ",
"  c #142F57",
". c #163361",
"X c #1B3C75",
"o c #1F4488",
"O c #234D96",
"+ c #3366B8",
"@ c None",
/* pixels */
"@@@@@@@@@@@@@@@@@@@@@@@@@@@@@@@@@@@@@@@@@@@@@@@@",
"@@@@@@@@@@@@@@@@@@@@@@@@@ooooo@@@@@@@@@@@@@@@@@@",
"@@@@@@@@@@@@@@@@@@@@@@@@@ooooo@@@@@@@@@@@@@@@@@@",
"@@@@@@@@@@@@@@@@@@@@@OOOOOO@@@oo@@@@@@@@@@@@@@@@",
"@@@@@@@@@@@@@@ooooO++OOOOOOo@@o@@@@@@@@@@@@@@@@@",
"@@@@@@@@@@@@@oooooO++++++Oooo@@@@@@@@@@@@@@@@@@@",
"@@@@@@oo@@@@oOOOOOOOOOOOoOOOOOooo@@@@@@@@@@@@@@@",
"@@@@@oo@@@@oOOOOOooooooooooOOOOOOoo@@@@@@@@@@@@@",
"@@@@oo@@@@ooOOOOOooooooooooOOOOOOoo@@@@@@@@@@@@@",
"@@@ooo@ooOOOOooooXXXXXXXXXXoooo++OOOOoo@@@@@@@@@",
"@@@ooo@ooOOOOooooXXXXXXXXXXooooO+OOOOoo@@@@@@@@@",
"@@@OO@@OO+++OooooooXXXXXXXXXXooXX+++Ooo@@@@@@@@@",
"@@@++OoOO++OoooXXXoooXXXXXXXXXXooXXO+OOooX@@@@@@",
"@@@++OoO+++ooXXXXooXXXXXX....XXooXXOOOOoooo@@@@@",
"@@@++Oo++++ooXXXXooXXXXXX....XXooXXOOOOooooo@@@@",
"@@@++oO++ooXXXXoooXXX..........ooXXoOOOooXoo@@@@",
"@@o++oO++ooXXXXoooXXX..........XoXXoOOOooXo@@@@@",
"@oo++oOooXXXXXXooXX......XXXXXXXXXXXoOOOO@@@@@@@",
"@oo++OOooXXXXXXXXXXXX............XXXO++OoX@@@@@@",
"@oo++OOooXXXXXXXXXX.................OOO++o@@@@@@",
"@oo++OOooXXXXXXXXXX.................OOO++O@@@@@@",
"oo@ooOOooXXoXXXXXXX.................OOO++OXX@@@@",
"oooooOOooXXoXXXXXXX.................OOO++OXX@@@@",
"OoooooOooXXoXXX..X..................OOO++OXX@@@@",
"oOOoooXoOXXXoXXXX.X....X...   ......O++++OXXX@@@",
"oOOOOoXooXXXoooXX......XX..   ......o++++OoXX@@@",
"oOOOOoXooXXXoooXX......XX..   ......o++++OoXX@@@",
"ooo++OoXXooXoooXX.......X..    ...XoO++OOooXXXX@",
"ooo++OoXXooXoooXX.......X..    ...XoO++OOooXXXX@",
"@oooO+OooXXXXoooo..........   ....Xo+++OoXoXXXX@",
"@@@oO++OOooXXXXXXX............oooooO+++XXoXX@XX@",
"@@@ooO+OOOooXXXXXXX..........oXXXOOO+OOXXoX@@X@@",
"@@@ooO+OOOOoXXXXXXX.........Xo...OOO+OoXXo@@@@@@",
"@@@@ooO++OOooXXXXXXXXXXXX..XX.oooOOOOooXXXXX@@@@",
"@@@@@oOO+OOooXXXXXXXXXXXX..XXXoooOOoOooXXXX@@@@@",
"@@@@@@oooooOOooooXXXX...XXXoooOOOOoXoXXXXX@@@@@@",
"@@@@@@@ooooooXXooooooooooooOOOOOOooXoXXXX@@@@@@@",
"@@@@@@@@oooooooOOOOOOOOOoooOOOooXXXoooXX@@@@@@@@",
"@@@@@@@@@@@@oOOOOOOOOOOOoooOOOoXXXXooo@@@@@@@@@@",
"@@@@@@@@@ooo@OO++++++++oXooooXXooooXXX@@@@@@@@@@",
"@@@@@@@@@ooooOO+++++++OoXooooXXooooXX@@@@@@@@@@@",
"@@@@@@@@@@@@oooOOOOOOOoXoooXXXXXXXX@@@@@@@@@@@@@",
"@@@@@@@@@@@@@@@@@@@@@@oo@@@@XXXXX@@@@@@@@@@@@@@@",
"@@@@@@@@@@@@@@@@@@@@@@@o@XXXXXXXX@@@@@@@@@@@@@@@",
"@@@@@@@@@@@@@@@@@@@@@@@@@XXXXX@@@@@@@@@@@@@@@@@@",
"@@@@@@@@@@@@@@@@@@@@@@@@XX@@@@@@@@@@@@@@@@@@@@@@",
"@@@@@@@@@@@@@@@@@@@@@@@@X@@@@@@@@@@@@@@@@@@@@@@@",
"@@@@@@@@@@@@@@@@@@@@@@@@@@@@@@@@@@@@@@@@@@@@@@@@"
};
