/* XPM */
static char *result[] = {
/* columns rows colors chars-per-pixel */
"48 48 7 1 ",
"  c #142F57",
". c #163361",
"X c #1B3C75",
"o c #1F4488",
"O c #234D96",
"+ c #3366B8",
"@ c None",
/* pixels */
"@@@@@@@@@@@@@@@@@@@oooo@@@@@@@@@@@@@@@@@@@@@@@@@",
"@@@@@@@@@@@@@@@@@ooooo@@@@@@@@@@@@@@@@@@@@@@@@@@",
"@@@@@@@@@@@@@@@@oooo@@@@@@@@@@@@@@@@@@@@@@@@@@@@",
"@@@@@@@@@@@@@@@ooOoo@@oooo@@@@@@@@@@@@@@@@@@@@@@",
"@@@@@@@@@@@@@@OOOOOOOOOooOOOOOOoo@@@@@@@@@@@@@@@",
"@@@@@@@@@@@@@OO++++OOOOOOOOOOOOoo@@@@@@@@@@@@@@@",
"@@@@@@@@@oo@O++++OOooooO+++++OOOOoo@@@@@@@@@@@@@",
"@@@@@@@ooooOOOOOOOXoooooOoooO++OOOOoooo@@@@@@@@@",
"@@@@@@@ooooOOOOOOOXooooooXXXo++OOOOoooo@@@@@@@@@",
"@@@@@@oooOOoXoOooXXXXXXXXooXXXOOOOOO@@@@@@@@@@@@",
"@@@@@ooooOooXooooXXXXXXXXooXXXoOOOOOOXX@@@@@@@@@",
"@@@@ooOOOooXXXXXXXXXXXXXXXXooXXooOOOOXX@@@@@@@@@",
"@@@@OOOooooXoooXXXXXXXXooXXXXoXXXOO+OOOXXX@@@@@@",
"@@@OOO+OooooXXXXXXXXXoooXXXXXXXXXoOO+OOooXXXX@@@",
"@@@OOO+OooooXXXXXXXXXoooXXXXXXXXXooO+OOooXXXX@@@",
"oo@OO++OOooXXXXXXXXXXooXX......XXooO+OOooX@XX@@@",
"oo@OO++OOooXXXXXXXXXXooXX......XXooO+OOooXXXX@@@",
"oo@OO++OoXXXXooXXXX..XXX..........XOO++OoXXX@@@@",
"OooOO+oooXXXoooXXXX..XX...........XoO++OOoXX@@@@",
"OooOO+oXXXXXoooXXX...XX............XO++++Ooo@@@@",
"OooOO+oXXXXXoooXXX...XX.............O++++Ooo@@@@",
"OOOOO+oXXXXXoooXXX...XX.............O++++Xoo@@@@",
"OOOOO+oXXXXXoooXXX...XX.............O++++Xooo@@@",
"+++ooOOXXXXXXooXX...................oOO++OXoo@@@",
"o++++OoXXXXXXXXXXX..................oOO++OXX@oo@",
"o++++OOooXXXXXXXXX.........    ....ooOO++OoXXo@@",
"@@@++OOooXXXXXXXXX.........    ...XooOO++OoXX@@@",
"@@@oO+OOOooXXXXXXXX......      ..ooo.oOOOOoo@@@@",
"o@@oO+OOOooXXXXXXXX......      ..oooXoOOOOoo@@@@",
"oo@@oooOOOoXXooooXX.....X.    ...oo.OOOOOoXX@@@@",
"oOOooooXXOOoXXXooooXX...X.   .....XoOOOooo@@@@@@",
"oooOOoOooXoooXXXXooooXXX.XX....XXooOOooXXoX@@@@@",
"oooOOoOooXXooXXXXooooXXX.XX....XXooOOooXXoXX@@@@",
"@ooooOOOOooXXXXXXXXXXXX.XXX....ooOOOoXXoooXXX@@@",
"@ooooOOOOOOXXXXXXXXXXXX.XXX...XooOOOoXXoooXXX@@@",
"@@@ooo+++++OXXXXXXXXXXXX.....XoOOOOoXXX@@@XXX@@@",
"@@@@@@@OO++++OoooooXXXXoooooooooooooXXX@XXXX@@@@",
"@@@@@@@@OOO++++OOOOOoooooooOOooXXooXXXX@XXXX@@@@",
"@@@@@@@@@oO++++OOOOOOooooooOOooXXooXXXX@XXXX@@@@",
"@@@@@@@@@@oooooooOOOOOOOO+++++XooXXX@@@XXX@@@@@@",
"@@@@@@@@@@@oooooooOOOOOOO+++++XooXXX@@@XXX@@@@@@",
"@@@@@@@@@@@@@@@@XXooooO++++++Xoo@XX@@@@@@@@@@@@@",
"@@@@@@@@@@@@@@@@@@@@@OOoooo@@@@@@@@@@@@@@@@@@@@@",
"@@@@@@@@@@@@@@@@@oooooooooo@@@@@@@@@@@@@@@@@@@@@",
"@@@@@@@@@@@@@@@@ooooooo@@@@@@@@@@@@@@@@@@@@@@@@@",
"@@@@@@@@@@@@@@@@@@@@@@@@@@@@@@@@@@@@@@@@@@@@@@@@",
"@@@@@@@@@@@@@@@@@@@@@@@@@@@@@@@@@@@@@@@@@@@@@@@@",
"@@@@@@@@@@@@@@@@@@@@@@@@@@@@@@@@@@@@@@@@@@@@@@@@"
};
