/* XPM */
static char *result[] = {
/* columns rows colors chars-per-pixel */
"48 48 7 1 ",
"  c #142F57",
". c #163361",
"X c #1B3C75",
"o c #1F4488",
"O c #234D96",
"+ c #3366B8",
"@ c None",
/* pixels */
"@@@@@@@@@@@@@@@@@@@@@@@@@@@@@@@@@@@@@@@@@@@@@@@@",
"@@@@@@@@@@@@o@@@@@@@@@@@@@@@@@@@@@@@@@@@@@@@@@@@",
"@@@@@@@@@@@@oo@@@@@@@@@@@@@@@@@@@@@@@@@@@@@@@@@@",
"@@@@@@@@@ooo@@@@@@oo@OOoooo@oo@@@@@@@@@@@@@@@@@@",
"@@@@@@@@oooo@@oooOoO+OOOoooooo@@@@@@@@@@@@@@@@@@",
"@@@@@@@oooo@@ooooOO+++++OOOooX@@@@@@@@@@@@@@@@@@",
"@@@@@@@ooOO@oOO++++++++OOOOOOOOO@@@@@@@@@@@@@@@@",
"@@@@@@oooOO+OOOOOOOooooXOooooO+OOOOo@@@@@@@@@@@@",
"@@@@@@oooOO+OOOOOooXXXXXOooooO+OOOOo@@@@@@@@@@@@",
"@@@@@@OOO++OooooooXoooooXXXOOOO++OOOoo@@@@@@@@@@",
"@@@@@oOOO++OooooooXoooooXXXoOOO++OOOooo@@@@@@@@@",
"@@@@ooO++OOOoXXXXXXXXXXXXXXXXoO++++Oooo@@@@@@@@@",
"@@@@ooO++OOoXXXXXXXooXXXXXXXXXXoOOO+OOOoo@@@@@@@",
"@@@oooOOOXXXXXXXXXoooXXXX......XXOOOOoXXXo@@@@@@",
"@@@oooOooXXXXXXXXXoooXXXX......XXOOOOXXXXo@@@@@@",
"@@@ooOoXXXXXXXXXXXoXXXX..........ooO+++XXoXXX@@@",
"@@@ooOoXXXXXXXXXXXoXXXX..........ooO+++oooXXXX@@",
"@@@OOOoXXXXoXXXXXooXX.............XoO++++XXXXXX@",
"@ooOOOoooooXXXXXXXXXX............oooO++OoXXXXXXX",
"@ooOOOoooXXXXXXXXXX..............XXoOOOOOoXXXXXX",
"@ooOOOoooXXXXXXXXXX...............XoOOOOOoXX@@XX",
"@ooOO+OooXXXXXXXXX................XoXoOOOooXX@XX",
"@ooOO+OooXXXXXXXXX...............XXoXOOOoooXX@@X",
"@ooOO+OooXXXoXXXX.X..............oo.oOOooXoXX@@@",
"@@@OO+OOOXXXoXXXX..XX............oo.oOOooXoXX@@@",
"o@@OO++OOXXXoooXX..XX......  ....X..oOOooXoXX@@@",
"oo@OO++OOXXXoooXX..XX......  .......oOOooXoXX@@@",
"+OOOO++OOXXXXooooX.........      .XoOOOooXoXX@@@",
"+OOOO++OOXXXXooooX.........      .XoOOOooXoXX@@@",
"+++OOOOOOXXXXooooX.........    ...XOOooooXXX@@@@",
"@++++ooOOooXXXXXXXX..........XX..XXOoooooXXX@@@@",
"@@+OO++OOoooXXXXXXXXX..X.........ooOXooXXXXX@@@@",
"@@@oO++OOoooXXXXXXXXX..X.........ooOXooXXXXX@@@@",
"@@@@+++++OOOOXXXXXXXXooooXXXXX.ooOOOXooXXXXX@@@@",
"@@@@@++++OOOooXXXXXXXooooXXXXXXooOOOXooXXXX@@@@@",
"@@@@@@oooOOoXoOoooXoooooXXX.XoOOOOO+XooXXX@@@@@@",
"@ooOO@@ooooooXXXX XXXXXooooooOO++++oXXX@@@@@@@@@",
"@@oooOOOOooOOoooXXXoooooOOOOOO+++++XXXX@@@@@@@@@",
"@@@ooOOOOooOOooooXXoooooOOOOOO+++++XXXX@@@@@@@@@",
"@@@@oooOOOOO+OOOOOO++OOOOOOooo+OOooX@@@@@@@@@@@@",
"@@@@@ooOOOOO+OOOOOO++OOOOOOooo+OOooX@@@@@@@@@@@@",
"@@@@@@@@@oooO++++++OOOOooo@@@@OooXX@@@@@@@@@@@@@",
"@@@@@@@@@@@@@@@oooooo@@@@@@ooooXXXX@@@@@@@@@@@@@",
"@@@@@@@@@@@@@@@oooooo@@@@ooXXXXXXX@@@@@@@@@@@@@@",
"@@@@@@@@@@@@@@@@@@@@@@@@@ooXXXXX@@@@@@@@@@@@@@@@",
"@@@@@@@@@@@@@@@@@@@@@@@@@@@XX@@@@@@@@@@@@@@@@@@@",
"@@@@@@@@@@@@@@@@@@@@@@@@@@@XX@@@@@@@@@@@@@@@@@@@",
"@@@@@@@@@@@@@@@@@@@@@@@@@@@@@@@@@@@@@@@@@@@@@@@@"
};
