/* XPM */
static char *result[] = {
/* columns rows colors chars-per-pixel */
"48 48 7 1 ",
"  c #142F57",
". c #163361",
"X c #1B3C75",
"o c #1F4488",
"O c #234D96",
"+ c #3366B8",
"@ c None",
/* pixels */
"@@@@@@@@@@@@@@@@@@@@@@@@@@@@@@@@@@@@@@@@@@@@@@@@",
"@@@@@@@@@@@@@@@@@@@@@oo@@@@@@@@@@@@@@@@@@@@@@@@@",
"@@@@@@@@@@@@@@@@@@@@@oo@@@@@@@@@@@@@@@@@@@@@@@@@",
"@@@@@@@@@@@@@@@oooooo@@@@OOoo@@@@@@@@@@@@@@@@@@@",
"@@@@@@@@@@@@@@OooooooOOOOOOooOoooo@@@@@@@@@@@@@@",
"@@@@@@@@@@@@@OOOOOOOOOOOOOOOOOooooo@@@@@@@@@@@@@",
"@@@@@@@@@@@@OOO+++OOOOO++++++OOOOoooooo@@@@@@@@@",
"@@@@@@@@@@@OO++++OOooOOOOOOOO++OOoooooo@@@@@@@@@",
"@@@@@@@@@@OOO++++OOooOOOOOOOO++OO@@@@@@@@@@@@@@@",
"@@@@oo@@@OO++oXXXXXXXXXXXXXOOOO++++OoXX@@@@@@@@@",
"@@@ooo@@oOO++oXXXXXXXXXXXXXoOOO++++OoXX@@@@@@@@@",
"@@@oo@@ooOOOoooooooXXXXooooXXoOOO+++Ooo@@@@@@@@@",
"@oooo@oOOooooXXXXXXXXXXXXXXXXXoOOOOOOoooo@@@@@@@",
"@ooOOoOooooXXXXXXXXXXXX.......XoooooOOOXXo@@@@@@",
"@ooOOoOooooXXXXXXXXXXXX........oooooOOOXXo@@@@@@",
"@ooOO+oooXXXXooooXX..........XXXXoo.OOOooXoo@@@@",
"@ooOO+oooXXXXooooXX..........XXXXoo.OOOooXoo@@@@",
"@ooOO+OooXXXXooooX.............XXoo.oOOooXoo@@@@",
"@@@OO+OooXXXXooXXX...............ooXoOOooXoo@@@@",
"@@@OO+OoXXXXXooXX................XXXoOOooXXXX@@@",
"@@@OO+OXXXXXXooXX..................XoOOooXXXX@@@",
"@@@OOOoXXXXXXXXXX...................oOOooXXXX@@@",
"@@oOOOoXXXXXXXXXX...................oOOooXXXX@@@",
"@ooOOooXXooXXXXXX...................oOOoooXXX@@@",
"@ooOOooooXXXXXXXX..........   .....XooooooXXX@@@",
"@ooOOooooXXXXXXXXX.........   .....XoooXXoXoo@@@",
"@ooOOooooXXXXXXXXX.........   .....XoooXXoXoo@@@",
"@ooOOOoooXXXXXXXXX.........    ...XooooXXoXoo@@@",
"@ooOOOoooXXXXXXXXX.........    ...XoooooooXoo@@@",
"@@@OO+OooXXXXooXXXX........   ...XX.oOO++XXoo@@@",
"@@@oO++OOooXXooooX.XXXXX.........XXooOO++Xooo@@@",
"@@@ooO+OOOoXXXXoooX.....X......XXoooO++OOXooo@@@",
"@@@ooO+OOOoXXXXoooX.....X......XXoooO++oo@ooo@@@",
"@@@@@@O++++OoXXXXoXXX.........XooooO+OOoo@oXX@@@",
"@@@o@@O++++OoXXXXoXXX........XXooooO+OOooXoXX@@@",
"@@@oo@oOO++OOooXXXXXXXX....XXooooOOOOoo@XXoo@@@@",
"@@@oO+OooOOOOOOoooXXXoooXXXoooOooOoXooo@XXXX@@@@",
"@@@oO+++++++OOOOOOoooXXXXooOOOOooooXooo@XXX@@@@@",
"@@@@@@++++++OOOOOOOOOXXXXooOOOOooooXoo@@XX@@@@@@",
"@@@@@@@@@ooO+++OOoXXXoooO++++ooXXXXo@@@@@@@@@@@@",
"@@@@@@@@@ooO+++OOoXXXooOO+++OooXXXXo@@@@@@@@@@@@",
"@@@@@@@@@@@@oooooooOOOO++++ooXXXX@@@@@@@@@@@@@@@",
"@@@@@@@@@@@@@@@oooO++++OOooooX@@@@@@@@@@@@@@@@@@",
"@@@@@@@@@ooooOOOOOOOO++OOooXXX@@@@@@@@@@@@@@@@@@",
"@@@@@@@@@ooooOOOOOOoo@@@@@@XX@@@@@@@@@@@@@@@@@@@",
"@@@@@@@@@@@@oooooooo@@@@@@@@@@@@@@@@@@@@@@@@@@@@",
"@@@@@@@@@@@@ooooooo@@@@@@@@@@@@@@@@@@@@@@@@@@@@@",
"@@@@@@@@@@@@@@@@@@@@@@@@@@@@@@@@@@@@@@@@@@@@@@@@"
};
