/* XPM */
static char *result[] = {
/* columns rows colors chars-per-pixel */
"48 48 7 1 ",
"  c #142F57",
". c #163361",
"X c #1B3C75",
"o c #1F4488",
"O c #234D96",
"+ c #3366B8",
"@ c None",
/* pixels */
"@@@@@@@@@@@@@@@@@@@@@@@@@@@@@@@@@@@@@@@@@@@@@@@@",
"@@@@@@@@@@@@@@@@@@@@@@@@o@@@@@@@@@@@@@@@@@@@@@@@",
"@@@@@@@@@@@@@@@@@@@@@@@@oo@@@@@@@@@@@@@@@@@@@@@@",
"@@@@@@@@@@@@@oo@@@@XX@oooooooo@@@@@@@@@@@@@@@@@@",
"@@@@@@@@@@@@ooo@@OooXOOooooooo@@@@@@@@@@@@@@@@@@",
"@@@@@@@@@@@@oo@@OOoOOOOOOO@@@@@@@@@@@@@@@@@@@@@@",
"@@@@@@@@@@oo@OOOO++++++++++OOOOoooo@@@@@@@@@@@@@",
"@@@@@@@@@oooOOOOOOOOOOO+++++++Ooooooo@@@@@@@@@@@",
"@@@@@@@@@oooOOOOOOOOOOO+++++++Oooooooo@@@@@@@@@@",
"@@@@@@@ooOOOOOOOOooooooooooOOOOOOooXooo@@@@@@@@@",
"@@@@@@oooOOOOOoooooooooooooOOOOOOooXooo@@@@@@@@@",
"@@@@@@oOO++OoXXXXXXXXXXXXoooooOOOooXXXX@@@@@@@@@",
"@@@@@@OOO++OXXXXXooXX....XXXXoXooOOoXXX@@@@@@@@@",
"@@@@@oO++OOXoooXXoXX...XXXXXXXoXXooOoXXXXXX@@@@@",
"@@@@ooO++ooXoooXXoX....XXXXXX.oXXooOoXXXXXXX@@@@",
"@@@@ooO++XXoXXXXXX...XX.X.....oX.ooOoooXXXXXX@@@",
"@@@@ooO++XXoXXXXXX...XX.X.....oX.ooOoooXXXXXXX@@",
"@@@@OO+OoooXXXXXX..............XXXXooooooXXXXXX@",
"oo@@ooOooXXXXXXXX........XXXX......XoooXXo@XXXXX",
"oo@ooOoooXXXXXXXX.......XXX......XX.oooXXo@XXXXX",
"oo@ooOoooXXXXXXXX.......XXX......XX.oooXXo@XXXX@",
"oooOOOoXXXXoXXX....................XoOO++X@@@XX@",
"oooOOOoXXXXoXXX....................XoOO++XX@@XX@",
"@ooOO+oXXXXooX......................oOO++XXX@@@@",
"@ooOO+OXXXXXoXX....................XoOO++o@@@@@@",
"@@oOO+OooXXXoXX............    ....ooOO++Oo@@@@@",
"@@@OO+OooXXXoXX............    ...XooOO++Ooo@@@@",
"@@@@OOOOOXXXXXXXX........      ...XooOO++ooXX@@@",
"@@@@OOOOoXXXXXXXX........      ...XooOO+OooXX@@@",
"@@@@OOOXXXXXXXXXX........     ....XooOOooXoo@@@@",
"@@@@ooOooXXoXXXXXX.......    ....oooOoooo@oo@@@@",
"@@@oooOoooooXXXoooX..........X...oooOoXXXoXX@@@@",
"@@@oooOoooooXXXoooX..........X...oooOXXXXoXX@@@@",
"@@@@oooOOOOooXXXXooXXXXXXXXXX....OOOoXX@@@XX@@@@",
"@@@@@ooOOOOOooXXXooXXXXXXXXXXX...OOOoXX@@@XX@@@@",
"@@@@@@oooOO+OOOooXoooXXXX...XoXXX+++oo@@@@XX@@@@",
"@@@@@@@@@oO++OOOOoXXXXXooOOooXOOO++ooo@@@@@@@@@@",
"@@@@@@@@@oOOO+++++oooooOOoXXXo+++OOoXX@@@@@@@@@@",
"@@@@@@@@@@ooO+++++OOOooOOXXXXo+++oooXX@@@@@@@@@@",
"@@@@@@@@@@@@@ooOOOoOOOOOoo@ooO+OoooX@@@@@@@@@@@@",
"@@@@@@@@@ooo+OoOOOoOOOOOooooOO+OoooX@@@@@@@@@@@@",
"@@@@@@@@@ooo+OOOOoOOO++ooooOO+OXXXX@@@@@@@@@@@@@",
"@@@@@@@@@@@@o++++++++oo@oOOOOo@@@@@@@@@@@@@@@@@@",
"@@@@@@@@@@@@o++++++++o@@OOOooo@@@@@@@@@@@@@@@@@@",
"@@@@@@@@@@@@@@@@@@@@@@@@OOOooo@@@@@@@@@@@@@@@@@@",
"@@@@@@@@@@@@@@@@@@@@@oooooo@@@@@@@@@@@@@@@@@@@@@",
"@@@@@@@@@@@@@@@@@@@@ooooooo@@@@@@@@@@@@@@@@@@@@@",
"@@@@@@@@@@@@@@@@@@@ooooo@@@@@@@@@@@@@@@@@@@@@@@@"
};
