/* XPM */
static char *_6c7afd2bd6e4430956d620f2150cbbe5IvkonCNgaezFY7m[] = {
/* columns rows colors chars-per-pixel */
"48 48 23 1 ",
"  c #2D8BC6",
". c #2E8ECB",
"X c #3088C6",
"o c #318ECC",
"O c #2E91CE",
"+ c #3192CE",
"@ c #349CCF",
"# c #308FD0",
"$ c #2F93D1",
"% c #2F99D4",
"& c #2F9AD8",
"* c #3294D3",
"= c #3399D5",
"- c #399CD5",
"; c #3397D8",
": c #349BDA",
"> c #389DDA",
", c #35A0D6",
"< c #36A1DB",
"1 c #3AA1DB",
"2 c #369FE1",
"3 c #34A0E1",
"4 c #3AA3E1",
/* pixels */
"****#$..*==*=$O++++*+*;:;*$**O*::%*Ooo#$*;;:*#;;",
"=**$$*..*%==*OO+++oo#;*:;*$**$$-:*ooo+$*;;2:#*;*",
"*==-:&*;===;=$%====Oo*****:$*O$*-;3:;;oo#o##===-",
"=*==<:=====*=+O,<==+o****>;;*#*==;::*;++**##==::",
"..#$$$$**$$O$;;<,O.;;.o*$=*+*O.$#*;;#*;***+*=**+",
"X.$#%%***%$$O%=:,O.;&.X****O+O.O#*:>oo**==*+=***",
"..X.$*:2.O..O$$#*$***..#*+$*+*;*@+*#**..@++ **++",
"OO..**2:O+.O.**$O*$**..o.+$=+*%=***@+*..@+oo*+**",
"$$*;$#;,*=+..#$;::<*=**==+O+=$=**$O+*O:2++;;11+o",
"$$**$#;===.O.+$;;-,**;=*%++@%O*****O++22-+->11**",
"$O**O.*=::$..*O+$==&:==.$==++===*;*;*$;;>;*+**o+",
"OO+O..$%:: ..**OO=*%;*@+.:=oO=;=;*&**$**;;++o#-+",
"***$..**:<$O$**O.=+=*+=.+:=OO;:=***%*$**-;o*oo;*",
"=*$$$%O*=&;%%==$O+*-=..==,,$O.o*;$##&;.**;oo##;*",
"=**$;;$*=:;=;;>+O+@==..--1:*$#.$$$OO$;*.**oX##**",
"***%#$*+=:$$*.O11**o+oo+++$=&**&&=%;;;=***;:#o;;",
"$*$*OO=+=-$$$. 11**+++.O+*@*>**-%**;;;****>;##--",
"++++==**OO$=*$#O*+...;=$=****X oO+*$=*o*=***oo#*",
"+++O==**OO***$O**..o.;=++****XXo++****+$;;*ooo**",
"**O*O@OO$$*$***==@*o.@%  *+@+oo***;>. ++**oo*;**",
"**#*O*OO$*$****==**+o+++ *+@+oo+*=;;oX++**o+*>-*",
"*$:;==O=$.***%=O+**+***;=*#+@+*-=+*+++*++*****++",
"$*;-===*OO**$=*++*;*+**::++*+**-=+**++***+***;+*",
"..o.**=;==*O++O;;**oo+.$***=*1>**-*;>4**+++o#*++",
"..O.*+=;*;$++++;=**+X++***-**:1%*===:3-*+#oo*+#o",
"==o+++=***Oo+++$*+*,>+@ XoX**** ...O*;;*oo>>***-",
":-O+Oo****##.*#*+**>1@*oX++o+=;..++O===*++>>**+*",
"=*OO .. *$$#**********;++*+@+*OOo+.O;>*+oo*>+++o",
"**$;O.. O$$***+=*=***;;*+=*+*+++OOO+*>++oo-*+*oo",
"*#;;=%,=&;%;***O$*=O+**>**=@=++>==****>+*o**++o*",
"##:&=:<:;:=*=***==*+***;*-*=+++::***>**;o#+-***$",
"::$%OO%O#.%;*=*..OOOo***;XO++oo*##...o..-*;*::;;",
";;**OO$%.o**===oo+++o*-**Xo**  ***oXo o+*==*;:=;",
"=%%$$$$$*****$++**-o++*+#+++*oo****+oooo$+*+***%",
"%OOO$$$O*%%**+.***=****++**+*#****-@++oo++++o.*+",
"$$O.OO$O*****+O****++*++#***o**$****OO.O*++O..OO",
"$%<<<:=O++O#+***+O+***+++;;;*;;*+*;;>;**:=.++*==",
"$*<<3:**++Oo+**O+++=*+*++;;>;**++>;>;;**== o**,=",
"$$**=*$*OO$OO;*=*++++=*O#+++*--O+**+;-**  --**:<",
"$$*+*=$$$$$$O****..+O*=O+#o**>-++***=>**  ,=**::",
"==o*$$*=***=*;*;=+=<:$*:-===;;*****%*;==oo::&$#$",
"==**$$;=**;***=;=+*:<$*-:-==;;*****$;;**o.::%&$#",
"=* .$O&&%%*.$$$==@=OO==o+oo .++**# .;;.+**-,....",
"=$..$.%;==*.$$$*=@@OO==oOo+Xo+#**#..;;+o**:,....",
"==O*$$$$*%*==+=O+**$=+*::*+*$$*+++.oO.*=#o.O****",
"==$$$*$$$*;*==@+O****+*;>*****O++OO...**..oo****",
";%*=::**#O*+Oo.+$;;o++o****+O==44<:>***=;::>==.o",
"&=++::*$O#**O+.$*;=*o+***=*+O-;441<:%=**==>>**##"
};
