/* XPM */
static char *result[] = {
/* columns rows colors chars-per-pixel */
"48 48 93 2 ",
"   c #00BCD6",
".  c #0CBCD6",
"X  c #01BCD9",
"o  c #08BED9",
"O  c #13BFDC",
"+  c #1EBEE1",
"@  c #01C3CE",
"#  c #00C9CA",
"$  c #16CDCE",
"%  c #00C5D6",
"&  c #0AC6D3",
"*  c #01CAD6",
"=  c #0FCDD5",
"-  c #01C4D9",
";  c #0CC5DB",
":  c #02CCDA",
">  c #0CCDDA",
",  c #11CFD0",
"<  c #13CFDA",
"1  c #00D3D7",
"2  c #01D3DB",
"3  c #09D2DB",
"4  c #01DDDD",
"5  c #0ADCDC",
"6  c #25DDDD",
"7  c #07E2DE",
"8  c #15E4DE",
"9  c #21E4DF",
"0  c #01C6E1",
"q  c #00D5E0",
"w  c #0AD6E1",
"e  c #02DDE1",
"r  c #0CDDE2",
"t  c #05DEE8",
"y  c #12D6E5",
"u  c #13DBE5",
"i  c #20DEE3",
"p  c #02E1E2",
"a  c #1AE2E1",
"s  c #1FE9E8",
"d  c #21E2E1",
"f  c #26ECE5",
"g  c #29ECE4",
"h  c #24EDEA",
"j  c #2BEFEA",
"k  c #30EDED",
"l  c #28F1E5",
"z  c #2BF0EB",
"x  c #3CF6EC",
"c  c #3CF8EE",
"v  c #3CF4F4",
"b  c #3CF9F2",
"n  c #63DAD9",
"m  c #54DEE3",
"M  c #54DAE8",
"N  c #7DDDEE",
"B  c #45E7E8",
"V  c #48E5EB",
"C  c #46FCEB",
"Z  c #4DFDED",
"A  c #51FEEE",
"S  c #44F5F3",
"D  c #47FEF5",
"F  c #4CFDF3",
"G  c #4CFDF8",
"H  c #51FEF3",
"J  c #69E9E2",
"K  c #67EEEC",
"L  c #68EEEB",
"P  c #7BE1E9",
"I  c #78E9E8",
"U  c #73F4E4",
"Y  c #74EBF7",
"T  c #83DEED",
"R  c #B2F3F5",
"E  c #B3F2FD",
"W  c #DCFEEA",
"Q  c #C3F4F7",
"!  c #C3F6FB",
"~  c #D2F7F7",
"^  c #D5FCF4",
"/  c #DBFCF6",
"(  c #D4F5FE",
")  c #D4FCFC",
"_  c #DAFDF8",
"`  c #EAF9ED",
"'  c #E4F7F7",
"]  c #E4FEF4",
"[  c #E8FEF3",
"{  c #E8F5FA",
"}  c #E4FEFB",
"|  c #EBFCFA",
" . c #F0FBFF",
/* pixels */
"- - % % % % % - % : f % % - 4 h 4 4 4 4 w e % % - % % % % % % - - 2 f % % % 4 f 4 4 4 4 5 e % % ",
"4 4 1 : 1 : 1 4 4 4 4 % * % % 3 z z 4 Y ' N % % 4 4 1 : : 1 : 4 4 4 e % * % % 3 z z 4 I / N % % ",
"- F F F 4 4 4 4 4 } * X % - % % - 4 4 4 % % % % - F F F 4 4 4 4 4 } @ X % - % % % 4 4 4 % % % % ",
"% % % : _ / J e 4 4 % - o o   4 & F Z % % % G - % % - : _ / J e 4 e % - o o X 4 % F Z - % % G - ",
"  X X X % & 4 H F & % % X X % % % % % % X   X X     X X % @ 4 H F > % % X   % % % % % % X     X ",
"Z     % % - % % % % % - % % % % % % % % % % X X Z X   - % % - - % % % % % % % % % % % % % %   X ",
"% % % % - X X % % % % 4 e % % 7 % % % % % % % % % % % % - X   % % % % 4 4 % % 4 * % % % % % % % ",
"% % % X X X % % % % % % H 8 A e % % - % G Z 2 % % % %   X X - % % % % % H a H 4 % % % % G A 2 % ",
"% 4 * % % % % % % % % % - | W - % % % % * @ ] ! % 4 : % - % % % % % % % - [ ` % % % % % % % ] Q ",
"% ( e Z 4 4 4 % % - % * % * % % % % % % % % % % % ~ q Z 4 4 2 % - - - : % * : % % % % % % % % * ",
"% - Q y F F % X - = < % -   X % : % % % - % * % % : Q w F F - X - < > % - X   % * % % % % % % % ",
"4 : - % - % % - X     X -   % % % 4 4 * % % : 2 4 : % % % % % - X X X X -   % % % 4 4 : % % : 1 ",
"% % % e 2 - % - -   2 X   - < % % > b 4 4 e b c - % % 2 2 X % % - X w X X - < % % = b 4 4 4 v S ",
"% X X -   - % 2 % % - % - * 1 9 # % % p 5 4 1 u % X - -   - % 2 % % % % % % 1 d % % - 4 5 4 4 5 ",
"% % X o   & % * e 2 - % 4 e p % % - % % ) ^ ^ % % %   o   & % : 4 4 % - 4 e p % % - % % ) ^ ^ % ",
"% % % - % % % % A A 4 e H H % % e 1 % e % % % % % % % % % % % % H H 4 4 H F @ % e 1 % p % % % % ",
"% e F - % % 1 % % ` 4 4 * % % % % % %   % - % % % p F - % - 2 % % { 4 4 * % % % % % % X % % % % ",
"e 7 - % % %   4 e % } : % % 4 % % X 7 - % % 4 e 4 7 - % % % X 4 e - } : % % 4 % % X 4 - % % e p ",
"$ % % % - - %     % % % % % % o F X % % % % - Z $ % % % - % : X   % % % % % % o F X - % % % % H ",
"% : % % e 5 4 * X X X X X e X F X   % O # % % * % * % % 4 4 4 % X X X   X 4   H X   % + # % % * ",
"% % % % % % % % %     & X X X   X - % - ) 4 C % % % % % % % % % :   X o   X X   X - - - ^ 4 D % ",
"% % % e % % % % % - - -   X     % - % % % F % % % % % 4 % % % % % - % % X X   % - - % % % Z % % ",
"% 4 1 - % % % % 1 - % % % % : 1 - % % % % % % % % 4 1 % % % % - 1 - % % % % 2 : % % % % % % % % ",
"% : z g 4 4 4 4 z % e 1 - % - % o * % 1 1 % * % - > j g 4 4 4 4 z % 4 : % % - - & @ - 1 2 % * - ",
"% % & f j e j j @ % 4 4 4 : : 2 U V 4 4 % % % % % %   l z 4 j j @ % 2 e 4 2 2 > U B 4 e % % % % ",
"% % % - L K e f % % % s 4 z h 7 4 g x % %   6 % % % % % L L e f % % - h 4 z h e 4 g c - %   6 % ",
"X X o % ; % % % % % % > F 4 _ _ 5 - % % *     G X   X % @ - : % % % % - F 4 _ ] e - - % *     F ",
"% X % % % % % %     % % % - ; ; @ % % % % %     - X & - & % % %   o % % - % - & . % % % - &     ",
"% % % % % e > % %   4 e % % % % % % X % % % % - - % - * - e : - % X 4 e % % % % % - - % - % % - ",
"- % % % % % % % % % % X   : X X o X - % X A A 2 - % % % % % % - % % - X X : X X     % % X A Z 2 ",
"4 - % : % % % - % % % %   X X   X 4 e % % % F Z 4 - % - % % % - % % % -   X     X 4 4 % % % H A ",
", % - - % F 4 p  .t H % % % F F % % % % % % % % = % * - % F 4 p } t H % % % G F % % % % % % % % ",
"% % % % - % % 5 e     % % E [ % % % % : * % % % % % % * % % % 2 e % - % % R [ % % % % : : % % % ",
"% : : % X - % % . % - - X X % % - * * % % % % % % : * % X % % % . % - % X X % % : * % % % % % % ",
"4 e S c % X X - %     - 2 % * % % 5 5 4 4 4 e 4 4 4 S v - X X % - X   - e % % % % 5 7 4 4 7 4 4 ",
"4 k v % % %       - %   % % % % * % 4 7 b C 4 4 4 k v % % % %   X - - X % % % % * % 4 e c x 4 4 ",
"% % % % % % % % 2 % % % - % % % % % > x 4 8 F % % % % % % % % - 2 % - % - - % % % % > x 4 8 Z % ",
"% 4 w & % - % % - - - e 7 4 % % % % % % % % % % % 2 2 % % - % % % % : q 4 4 % % % % % % % % % % ",
"% % q 4 4 4 4 4 7 4 4 8 C % @ 0 % - % % - % % - % % p 4 4 4 5 4 q 4 4 8 C % @ - % % % % - % % * ",
"% % % | r e 4 4 4 4 e 4 % - e ] 4 Z % % * % % % % % & } p 4 4 4 7 e e 4 % % p ] 7 A % % % % % % ",
"% % % % - H H 4 4 4 4 % % % % r } % % % % % % % % % % % - H H 4 4 4 4 % % % - 4 } % % % % % % % ",
"H H X % % % % } } } R % % % % % % % % % % % % X A H X % % % % } } } R % % % %   % % % % % % % X ",
"  X   % % % % % % - % % % %   X X % %   X X * o   X X % % % % # % % % % % % X     - * X X X % X ",
"X o % : q 1 % % % % 4 % % % % X X X X :   X X   X - % % 4 1 % % % % 4 % % % % X   X X *   X X X ",
"- % G % % % % % % % % % 2 : % % % X       % % % % % S ; % % % % % % % % 4 : % % - o   o X % % % ",
"- - % ^ % % - - G F 4 7 _ % % % % % - * % % Z v - - % ^   * - - F D 4 7 ^ % % % % % - - % % Z v ",
"P N X X   : : % % n m d - % : 1 * % i i % 1 4 2 T N X o X 0 : % % n M 8 - % : 1 - % u i % > 4 : ",
"% - - : X   % % % % % % % % - 4 g 0 2 2 f g : - @ - - : X X - - % % % % % % % 4 g 2 2 1 f f : % "
};
