/* XPM */
static char *result[] = {
/* columns rows colors chars-per-pixel */
"48 48 74 1 ",
"  c #02629E",
". c #0063A5",
"X c #016AAD",
"o c #0366B3",
"O c #016CB5",
"+ c #026EBA",
"@ c #0172B6",
"# c #0971B0",
"$ c #0279B6",
"% c #0276BD",
"& c #0379BD",
"* c #097ABC",
"= c #006DC2",
"- c #0275C1",
"; c #027AC2",
": c #097CC3",
"> c #027ECA",
", c #0C7FC8",
"< c #007DD1",
"1 c #0B81BE",
"2 c #0282C7",
"3 c #0883C7",
"4 c #0185CD",
"5 c #0983CC",
"6 c #0289CE",
"7 c #0B8ACF",
"8 c #0286D2",
"9 c #0288D0",
"0 c #0B8CD2",
"q c #0386D8",
"w c #068ED8",
"e c #118DD3",
"r c #0A91D4",
"t c #0690D8",
"y c #1393D4",
"u c #1AB2EE",
"i c #1FB7F6",
"p c #2BB6EF",
"a c #23AFF2",
"s c #25B5F5",
"d c #29B6F6",
"f c #24BAF5",
"g c #2AB9F6",
"h c #2AB6F9",
"j c #2CBAFB",
"k c #30B7F9",
"l c #32BCFE",
"z c #2DC0F6",
"x c #28C0FF",
"c c #33C4FF",
"v c #78CAEF",
"b c #71CFF5",
"n c #7CCDF4",
"m c #71CDFE",
"M c #6BD2FB",
"N c #7DD2F6",
"B c #77D0F8",
"V c #7DD4FB",
"C c #7DD9FD",
"Z c #83CFF6",
"A c #83D4F6",
"S c #89D7F3",
"D c #83D8F7",
"F c #8AD8F5",
"G c #82D5FB",
"H c #8AD7FB",
"J c #85DAFD",
"K c #8ADBFD",
"L c #92DCFD",
"P c #8BE0F3",
"I c #8EE1FD",
"U c #92E3F7",
"Y c #92E3FE",
"T c #9EE8FF",
/* pixels */
"Fw2999896I9499888>ZGs6999998d&%&%%AKGG=%9999964F",
"Nm899980qG700eddd2-h98449999%d;&02N-%;Jw999968BN",
"ggK446YA>2OOsXX%%+KS@%l89999992H2j99686G869qLY-l",
"%9gG94G6gl%%d%L$%%KGGLg86w>898K494699999Z6KG%%g%",
"%-6GGJ8q94gg&&;N&%G%%OAVGVLG66K6949968996F+-%%f%",
"%%%*Gf696q&%&&&%AGO%%&gq8q98L>dgjj9999968G%-%%d%",
"%%%%4Jl49%%%%%&%+J%%%%@jghljjK&%%%8999986G+ggj%%",
"&%%%8G4g9&%%;%%%gH%%&%g4892&%K%&&%%%46994Gi%&%%%",
"%%&%4G4d8&%&&gdd%Gi%%%g%89jh&Jddg%%%-999VK9%%%%%",
"-&%%8G4d9>%Ol%%%%%gOOOl%9999jI%%%c%%-98<F299%&-%",
"&%&%%Hjggl%%%;9%%+%%&l;%&;999V%%%O%%%*FJ4AG49&%%",
"%%&%gH8886%%%86%%GO%%%%%&;496KKGGFNVGN2948K8gj%%",
"%%%h*J9899&&9998-H969&g%&&w89K&%-%h%G&9999qD64gg",
"VnnjGK%&69999968wSBt99a;$*JNVt;%%%g;G;9994aAqFNN",
"%Oc%OGYq899999TY:>0;L94KY>8892oU%%YHu%999l49GO&%",
"%%%j%%KGVGGVVVO-;%96GGG4f8999&%GGG$%g%999g99V9%%",
"&%%h%%9qG96868$%%%-94G84g899;%%VV%%%h%%49j869Kw9",
"8%&&h8998L4899%&%%&&%o%8g49988%G&%%%j%%%6j996L66",
"999994gg9+%;%%%%&%%%%O%l48jgg4j2K&l8q%%896j9K499",
"9968994dh&H-&%%%%%%&%Os%gg4999j9%G866699989dV999",
"964fddd8k%H-%&%;%&-*%Y&%&&;9999dgjG48969989gV899",
"88KLLI>49jI*%&%%%oYLLY%%%&9999999j8G6999969sVI-9",
"9Gad%%88JV%%%%%&GKg%%#@%&%99999999h2G649HKKG88G%",
"Hnj%%%999;%%&%%%V$j%%o-%&%99949994gS4GGGqs4999-V",
"C%j&%99992G;-%%GCO%%%&GA-;%86998&94G9996g4Lq9%%%",
"%&d&&99999VG0ybV&d%%%%%%NM0684e:*7Dg9998d88G6%%G",
"%%%g%%%%%482>B>4O%@%&%%&%:.LLY;OO a+%;962c9G9%%G",
"&%j%-%%%%%99C889%%%&%%%%%nO466%fsiss%-%99h9G99%G",
"V&j&%&%%&999GV994%+%%%4GA99999j%%o%%gs%%4g8G99%&",
"AN%%%%%;69996GK44f%%&8K7599999h%%++%%,O%h08G998&",
"%aY-%%%%99998V9CK2896D88899988%g%%+K%%z;%xL4668L",
"%s%G-%%*9994G%99GKdgpN89964%%%%g%%%GGG+%GVs966V:",
"s&gGdddhdj84G&99gCVVJ<8986&%%%%d%%%G&&KAG46ddi%%",
"%%&LO+%%&;;GKO2j99889jD94lO;%%%g%%OB%3XKC2>>>;Xg",
"%&%%%ZHGGGGG%d%%%%%&%OgF964s+%g&%oG%&%%gNq884G%%",
"%&988989998G%3+%&%%%%%8G9999hg%&%U%&%%%9V8996H$%",
"&9996999969D%&O&%%&&%%4GG988h&KGJ%;&&69qG8996G@&",
"9994999986rv:1&&&%%%%&9G6NNNNNGB-%;999wjGq9664n,",
"999%9699%XO&O#Xj%%-YLIY<9996h4K999999j2G88%984jG",
"69%%9894%K%%%%Kd%%V%--699999h8K89999g9wV6&%%&68V",
"VGD&;666V;%%%&#VGK&&%%999999hk8G9488g9K;%%%&%%4G",
"&d&KKKKH84%%%3od%&&%%&999999h%49GKKKHDXO%%%%%%%J",
"&g+KKKK9j8g%-:24j-$%%@889jgj+%%hG%54d%%+HKKKKK+%",
"%$L4hg4GGshGGGGGGGG&&OGAGG9&%%*%GVds%%%%&&&&V%%%",
"-5<894hhGKGGgg;99gKCVL964wV$%-%GGOG-%%&&%%%%G&;%",
"LV9699g96HL688998l86G498442LYKLP%%YH%&%%%%%&@IGJ",
"99lgg9g96L99999999g6G6gh868h%%%%%%%G&%&%%%9892G9",
"94488hf96L94999999qGG9w86999h&&%%%%GG%%%&89999D9"
};
