/* XPM */
static char *result[] = {
/* columns rows colors chars-per-pixel */
"48 48 110 2 ",
"   c black",
".  c #0B0000",
"X  c #01000E",
"o  c #0C0C0D",
"O  c #140000",
"+  c #1F0000",
"@  c #0C0A15",
"#  c #030018",
"$  c #2F0000",
"%  c #260009",
"&  c #020022",
"*  c #450000",
"=  c #651C0F",
"-  c #681A0D",
";  c #751607",
":  c #7C1304",
">  c #741709",
",  c #711809",
"<  c #671C10",
"1  c #6D261C",
"2  c #6B291D",
"3  c #642D23",
"4  c #19134A",
"5  c #3D1040",
"6  c #230E52",
"7  c #1A0E60",
"8  c #171060",
"9  c #392165",
"0  c #322371",
"q  c #532553",
"w  c #850F00",
"e  c #821100",
"r  c #8F1307",
"t  c #83160A",
"y  c #86190A",
"u  c #A82727",
"i  c #A52A27",
"p  c #A82827",
"a  c #AE2B2A",
"s  c #B32323",
"d  c #B52829",
"f  c #A03536",
"g  c #BF5A46",
"h  c #B76559",
"j  c #976F7F",
"k  c #95717F",
"l  c #C25B4A",
"z  c #CB7474",
"x  c #DE7675",
"c  c #E76E66",
"v  c #EB6C65",
"b  c #E56E68",
"n  c #EF6F6B",
"m  c #F56C6C",
"M  c #EE716D",
"N  c #F0736F",
"B  c #E27576",
"V  c #ED7471",
"C  c #E57B76",
"Z  c #F07370",
"A  c #9C6F82",
"S  c #957280",
"D  c #9B7283",
"F  c #937D86",
"G  c #957F88",
"H  c #987E8A",
"J  c #93858A",
"K  c #F79487",
"L  c #FC9284",
"P  c #FF948C",
"I  c #F59D8F",
"U  c #FD998D",
"Y  c #EF9F96",
"T  c #F29E95",
"R  c #FA9B90",
"E  c #F09E99",
"W  c #E9A79E",
"Q  c #C392A6",
"!  c #CB91A9",
"~  c #CE9FB5",
"^  c #D19FB6",
"/  c #F09DA2",
"(  c #CDA0B5",
")  c #D1A0B6",
"_  c #FFB5B5",
"`  c #FFBEB6",
"'  c #FFCDBB",
"]  c #FFD3BF",
"[  c #CFBDC9",
"{  c #D2B5C5",
"}  c #D8B3C5",
"|  c #FDC7C7",
" . c #FBC8C5",
".. c #FEC6C9",
"X. c #F6CBCA",
"o. c #FEC8C8",
"O. c #FDD9C1",
"+. c #F0D1D3",
"@. c #FFD3D0",
"#. c #FFDED5",
"$. c #EDEDED",
"%. c #FEECE6",
"&. c #FDEDEA",
"*. c #F3EFFF",
"=. c #F9EAFF",
"-. c #F2F2F0",
";. c #FFF4F6",
":. c #FFF5F8",
">. c #FEFEFE",
",. c None",
/* pixels */
",.,.,.,.,.,.,.,.,.,.,.,.,.,.,.,.,.,.,.,.,.,.,.,.,.,.,.,.,.,.,.,.,.,.,.,.,.,.,.,.,.,.,.,.,.,.,.,.",
",.,.,.,.,.,.,.,.,.,.,.,.,.,.,.,.,.,.,.,.,.,.,.,.,.,.,.,.,.,.,.,.,.,.,.,.,.,.,.,.,.,.,.,.,.,.,.,.",
",.,.,.,.,.,.,.,.,.,.,.,.,.,.,.,.,.,.,.,.,.,.,.,.,.,.,.,.,.,.,.,.,.,.,.,.,.,.,.,.,.,.,.,.,.,.,.,.",
",.,.,.,.,.,.,.,.,.,.,.,.,.,.,.,.,.,.,.,.,.,.,.,.,.,.,.,.,.,.,.,.,.,.,.,.,.,.,.,.,.,.,.,.,.,.,.,.",
",.,.,.,.,.,.,.,.,.,.,.,.,.e : ,.: e : ,.,.,.,.,.,.,.,.,.,.,.,.,.,.,.,.,.,.,.,.,.,.,.,.,.,.,.,.,.",
",.,.,.,.,.,.,.,.,.,.,.,.: U P V U U m : ,.,.,.,.,.,.,.,.,.,.,.,.,.,.,.,.,.,.,.,.,.,.,.,.,.,.,.,.",
",.,.,.,.,.,.,.,.,.,.,.,.2 L U m U U v 2 ,.,.,.,.,.,.,.,.,.,.,.,.,.,.,.,.,.,.,.,.,.,.,.,.,.,.,.,.",
",.,.,.,.,.,.,.,.,.,.,.,.,.r K m P P r ,.,.,.,.,.,.,.,.,.,.,.,.,.,.,.,.,.,.,.,.,.,.,.,.,.,.,.,.,.",
",.,.,.,.,.,.,.,.,.,.e e : m m m n m m e e e ,.,.,.,.,.,.,.,.,.,.,.,.,.,.,.,.,.,.,.,.,.,.,.,.,.,.",
",.,.,.,.,.,.,.,.e e R I U U U U U U U U R U y w 1 ,.,.,.,.,.,.,.,.,.,.,.,.,.,.,.,.,.,.,.,.,.,.,.",
",.,.,.,.,.,.,.y U I O.O.U U U U U U U U U U V m v 1 ,.,.,.,.,.,.,.,.,.,.,.,.,.,.,.,.,.,.,.,.,.,.",
",.,.,.,.,.1 y U U U O.O.U U U U O.U U U U U U P m v > ,.,.,.,.,.,.,.,.,.,.,.,.,.,.,.,.,.,.,.,.,.",
",.,.,.,.2 L U U U U U R U U U U U U U U U U U U P m m e ,.,.,.,.,.,.,.,.,.,.,.,.,.,.,.,.,.,.,.,.",
",.,.,.,.2 L U U U U U U U U U U U U U U U U U U P m m e ,.,.,.,.,.,.,.,.,.,.,.,.,.,.,.,.,.,.,.,.",
",.,.,., L U U U U U U U U U U U U U U U U U U U U P m m e ,.,.,.,.,.,.,.,.,.,.,.,.,.,.,.,.,.,.,.",
",.,.,.> L U P m m U U U U U U U U U m m U U U U U P m m e ,.,.,.,.,.,.,.,.,.,.,.,.,.,.,.,.,.,.,.",
",.,.,.> L V z . O U U U U U U U U m . . T U U U U P m m m : ,.,.,.,.,.,.,.,.,.,.,.,.,.,.,.,.,.,.",
",.,.2 K U * + o &.U U U U U U U U $   -.T U U U U U P m m e ,.,.,.,.,.,.,.,.,.,.,.,.,.,.,.,.,.,.",
",.,.e U U % X @ *.U U U U U U U U #   *.E U U U U U R m m e ,.,.,.,.,.,.,.,.,.,.,.,.,.,.,.,.,.,.",
",.,.e U U 5 4 & 6 U U U U U U U U 7 X 8 E U U U U U P m m w >.,.,.,.,.,.,.,.,.,.,.,.,.,.,.,.,.,.",
",.,.e U U q 0 0 9 U U U P U U U U 0 0 0 / U U U U U R m m m e ,.,.,.,.,.,.,.,.,.,.,.,.,.,.,.,.,.",
",.,.e U U U U U P U e e : U U U U U U U U U U U U P U m m m e ,.,.,.,.,.,.,.,.,.,.,.,.,.,.,.,.,.",
",.e %.%.&.W U W %.%.e e w &.%.%.U U U U U U #.%.@.a U m m m e ,.,.,.,.,.,.,.,.,.,.,.,.,.,.,.,.,.",
"e ,.o.| ;.&.%.&.>.>.>.e >.>.>.%.%.&.&.%.%.X.| +.>.@.s m m m e ,.,.,.,.,.,.,.,.,.,.,.,.,.,.,.,.,.",
"e ..l l ` :.>.:.....| w | | | | >.>.>.>.X.h g h o._ s m m m e ,.,.,.,.,.,.,.,.,.,.,.,.,.,.,.,.,.",
"e | .. .;.+.| _ s s s s s s s s ..| | >.>.+......._ s m m m e ,.,.,.,.,.,.,.,.,.,.,.,.,.,.,.,.,.",
",.e ..o.| f s d m m m m m m m m s u s | ..| | _ s d m m m m e ,.,.,.,.,.,.,.,.,.,.,.,.,.,.,.,.,.",
",.,.: : i m m M U U U U m m m m m m m u u u u d m m m m m m m > ,.,.,.,.,.,.,.3 > > > = ,.,.,.,.",
",.,.,.; c m V R U U U U P U P P P m m m m m m m m m m m m m m e ,.,.,.,.,.,.- c m m m M > ,.,.,.",
",.,.,.> c M V P U U U U U U U U P Z N N m m m m m m m m m m m y ,.,.,.,.,.,.t c C C C M e ,.,.,.",
",.,.,.> L U U U U U U U U U U U U U P U N m m m m m m m m m m U e e e e w e n P ' ] ] U e e ,.,.",
",.,.,.< ,.Y Y T U U I U U U U U U U U U U Z m m m m m m m m m U P T W Y B T Y Y Y R B x Y Y > ,.",
",.,.,.,.,.,.>.%.U R O.U U U U U P U U U U V m m m m m m m m m P U >.>.>.>.>.>.>.>.>.>.>.>.>.>.,.",
",.,.,.,.,.,.{ [ >.>.>.>.>.>.>.>.>.>.>.>.>.>.>.>.>.>.>.>.>.>.>.>.>.{ { { { { { { { { { { { { { S ",
",.,.,.,.F { { { { { { { { { { { [ { { { { ( ( ~ ~ ~ ~ ~ ~ ! ~ ^ [ { { >.{ ( ) ) ( ) ) ~ ^ ^ ( S ",
",.,.,.,.,.F D ( { { >.>.>.{ { { { { { >.>.>.>.>.>.>.>.( ! ! ~ ~ { { { ( ^ ~ k j S k k k k S S ,.",
",.,.,.,.,.G D ~ S { { { { { { [ { { ( ( ^ ^ ) ) ~ ~ ^ ! ! ! ^ ~ ^ ^ ~ ! ! ! D ,.,.,.,.,.,.,.,.,.",
",.,.,.,.,.G D { S ( { { { { { { { ~ ^ ^ ! j { } ~ A ! ! ! ! ! ^ ^ ~ ^ ! ! S ,.,.,.,.,.,.,.,.,.,.",
",.,.,.,.,.G D } ( S ( ( ( ( ( ( ( ^ ^ ^ ! A { { ~ A Q ! ! ! ! ! ! ! ! j j ,.,.,.,.,.,.,.,.,.,.,.",
",.,.,.,.,.G F } ^ S D ^ ~ ~ ~ ) ~ ^ ( ! ! A { } ~ S ! ! ! ! ! ! ! D D ,.,.,.,.,.,.,.,.,.,.,.,.,.",
",.,.,.,.,.F F } ^ S :.D D ! ! ! ! ! ! ! ! D ) } ~ D ! ! ! ! j D D ,.,.,.,.,.,.,.,.,.,.,.,.,.,.,.",
",.,.,.,.,.J H } ~ G $.F J Q Q Q Q Q Q Q Q S } } ~ D Q Q Q Q H G F ,.,.,.,.,.,.,.,.,.,.,.,.,.,.,.",
",.,.,.,.,.,.,.S k ,.,.$.>.S S S k S S S S S ( ~ ~ j S S j k ,.,.,.,.,.,.,.,.,.,.,.,.,.,.,.,.,.,.",
",.,.,.,.,.,.,.,.,.,.,.,.,.$.>.>.$.$.>.>.$.$.G S F $.,.,.,.,.,.,.,.,.,.,.,.,.,.,.,.,.,.,.,.,.,.,.",
",.,.,.,.,.,.,.,.,.,.,.,.,.,.,.,.,.,.,.,.,.,.,.>.$.,.,.,.,.,.,.,.,.,.,.,.,.,.,.,.,.,.,.,.,.,.,.,.",
",.,.,.,.,.,.,.,.,.,.,.,.,.,.,.,.,.,.,.,.,.,.,.,.,.,.,.,.,.,.,.,.,.,.,.,.,.,.,.,.,.,.,.,.,.,.,.,.",
",.,.,.,.,.,.,.,.,.,.,.,.,.,.,.,.,.,.,.,.,.,.,.,.,.,.,.,.,.,.,.,.,.,.,.,.,.,.,.,.,.,.,.,.,.,.,.,.",
",.,.,.,.,.,.,.,.,.,.,.,.,.,.,.,.,.,.,.,.,.,.,.,.,.,.,.,.,.,.,.,.,.,.,.,.,.,.,.,.,.,.,.,.,.,.,.,."
};
